<svg width="14" height="14" viewBox="0 0 14 14" fill="none" xmlns="http://www.w3.org/2000/svg">
<g clip-path="url(#clip0_197_315)">
<path d="M6.99941 14.0001C3.97027 14.0001 1.50586 11.5297 1.50586 8.4932C1.50586 6.13163 2.5791 4.02588 4.15487 2.2965C5.45088 0.874133 6.73355 0.0908989 6.7875 0.0582778C7.07182 -0.113714 7.4534 0.120621 7.4534 0.437536V4.21002L9.38346 2.40864C9.55099 2.25226 9.81623 2.26309 9.96982 2.43675C10.7034 3.26595 11.2873 4.14158 11.7054 5.03935C14.0371 10.0466 10.8228 14.0001 6.99941 14.0001Z" fill="url(#paint0_linear_197_315)"/>
<path d="M11.7055 5.0393C11.2874 4.14153 10.7035 3.2659 9.96992 2.4367C9.81633 2.26301 9.5511 2.25221 9.38356 2.40859L7.4535 4.20997V0.437488C7.4535 0.198886 7.23724 0.00717926 7.00903 0.000343323V14C10.8282 13.9935 14.0352 10.0424 11.7055 5.0393Z" fill="url(#paint1_linear_197_315)"/>
<path d="M6.99956 14.0001C5.84839 14.0001 4.91187 13.0612 4.91187 11.9073C4.91187 10.0426 6.72224 8.93856 6.7993 8.89246C6.93438 8.81171 7.1035 8.81549 7.23486 8.90203C7.31049 8.95191 9.08724 10.1436 9.08724 11.9073C9.08726 13.0612 8.15074 14.0001 6.99956 14.0001Z" fill="#FEC356"/>
<path d="M9.08721 11.9074C9.08721 10.1437 7.31044 8.95198 7.23484 8.9021C7.16642 8.85701 7.08778 8.83462 7.00903 8.83467V13.9999C8.1558 13.9947 9.08721 13.0581 9.08721 11.9074Z" fill="#FEB020"/>
<g clip-path="url(#clip1_197_315)">
<path d="M6.99917 14.0001C3.97003 14.0001 1.50562 11.5297 1.50562 8.49316C1.50562 6.13159 2.57886 4.02585 4.15462 2.29647C5.45063 0.874103 6.7333 0.0908683 6.78725 0.0582472C7.07157 -0.113745 7.45315 0.120591 7.45315 0.437505V4.20999L9.38321 2.40861C9.55075 2.25223 9.81598 2.26306 9.96957 2.43672C10.7031 3.26591 11.287 4.14154 11.7051 5.03932C14.0368 10.0466 10.8225 14.0001 6.99917 14.0001Z" fill="#FE4E33"/>
<path d="M11.705 5.03933C11.2869 4.14155 10.703 3.26592 9.96943 2.43672C9.81584 2.26303 9.55061 2.25223 9.38307 2.40861L7.45302 4.20999V0.437511C7.45302 0.198909 7.23676 0.00720215 7.00854 0.000366211V14C10.8277 13.9935 14.0347 10.0425 11.705 5.03933Z" fill="#FE1600"/>
<path d="M6.99908 14C5.8479 14 4.91138 13.0612 4.91138 11.9073C4.91138 10.0426 6.72176 8.93852 6.79881 8.89242C6.93389 8.81168 7.10301 8.81545 7.23437 8.90199C7.31 8.95187 9.08675 10.1436 9.08675 11.9073C9.08678 13.0612 8.15025 14 6.99908 14Z" fill="#FEC356"/>
<path d="M9.08673 11.9073C9.08673 10.1436 7.30996 8.95188 7.23435 8.902C7.16594 8.85691 7.08729 8.83452 7.00854 8.83457V13.9998C8.15532 13.9946 9.08673 13.058 9.08673 11.9073Z" fill="#FEB020"/>
</g>
</g>
<defs>
<linearGradient id="paint0_linear_197_315" x1="12.4944" y1="14.0001" x2="-2.18461" y2="13.1086" gradientUnits="userSpaceOnUse">
<stop stop-color="#F9889C"/>
<stop offset="1" stop-color="#FEAA99"/>
</linearGradient>
<linearGradient id="paint1_linear_197_315" x1="12.4945" y1="14" x2="5.14647" y2="13.7772" gradientUnits="userSpaceOnUse">
<stop stop-color="#F9889C"/>
<stop offset="1" stop-color="#FEAA99"/>
</linearGradient>
<clipPath id="clip0_197_315">
<rect width="14" height="14" fill="white"/>
</clipPath>
<clipPath id="clip1_197_315">
<rect width="14" height="14" fill="white"/>
</clipPath>
</defs>
</svg>
