<svg width="27" height="24" viewBox="0 0 27 24" fill="none" xmlns="http://www.w3.org/2000/svg">
<path d="M9.08371 19.8763L8.66105 20.123C8.07819 20.4633 7.26872 20.1645 6.85604 19.4575L3.5855 13.8547C3.17282 13.1477 3.31087 12.2959 3.89358 11.9557L4.31624 11.709C4.8991 11.3688 5.70856 11.6675 6.12125 12.3745L9.39179 17.9774C9.80462 18.6842 9.66657 19.5361 9.08371 19.8763ZM4.19311 12.4689C3.84359 12.6729 3.76068 13.184 4.00828 13.6081L7.27882 19.211C7.52642 19.6352 8.01223 19.8143 8.36174 19.6103L8.7844 19.3636C9.13392 19.1595 9.21683 18.6484 8.96923 18.2243L5.69912 12.6218C5.45152 12.1976 4.96571 12.0185 4.6162 12.2225L4.19311 12.4689Z" fill="#161516" stroke="#161516" stroke-width="0.7"/>
<path d="M12.3407 20.602L11.9181 20.8487C11.3352 21.1889 10.5257 20.8902 10.113 20.1832L4.55224 10.6568C4.13956 9.94981 4.27761 9.09798 4.86031 8.75784L5.28297 8.51112C5.86583 8.17089 6.6753 8.46963 7.08798 9.17661L12.6488 18.703C13.0615 19.41 12.9234 20.2618 12.3407 20.602ZM5.15984 9.27098C4.81032 9.475 4.72742 9.9861 4.97501 10.4103L10.5358 19.9367C10.7834 20.3608 11.2692 20.5399 11.6187 20.3359L12.0414 20.0892C12.3909 19.8852 12.4738 19.3741 12.2262 18.9499L6.66543 9.42352C6.41783 8.99935 5.93201 8.82024 5.58251 9.02426L5.15984 9.27098Z" fill="#161516" stroke="#161516" stroke-width="0.7"/>
<path d="M23.0308 11.7349L22.6082 11.9816C22.0253 12.3219 21.2158 12.0231 20.8032 11.3161L17.5325 5.71337C17.1198 5.00639 17.2578 4.15456 17.8405 3.81442L18.2632 3.5677C18.8461 3.22747 19.6555 3.52621 20.0682 4.23319L23.3387 9.83606C23.7516 10.5429 23.6135 11.3948 23.0308 11.7349L23.0308 11.7349ZM18.1402 4.32747C17.7907 4.53149 17.7078 5.04259 17.9554 5.46675L21.2259 11.0696C21.4735 11.4938 21.9593 11.6729 22.3089 11.4689L22.7315 11.2222C23.081 11.0181 23.1639 10.507 22.9163 10.0829L19.6461 4.48049C19.3985 4.05631 18.9127 3.87721 18.5632 4.08122L18.1402 4.32747Z" fill="#161516" stroke="#161516" stroke-width="0.7"/>
<path d="M22.0612 14.9278L21.6386 15.1745C21.0557 15.5147 20.2462 15.216 19.8336 14.509L14.2728 4.9826C13.8601 4.27562 13.9981 3.42379 14.5808 3.08365L15.0035 2.83693C15.5864 2.4967 16.3958 2.79544 16.8085 3.50242L22.3693 13.0288C22.782 13.7358 22.6441 14.5875 22.0612 14.9278ZM14.8804 3.59678C14.5308 3.80081 14.4479 4.31191 14.6955 4.73607L20.2563 14.2625C20.5039 14.6866 20.9898 14.8657 21.3393 14.6617L21.7619 14.415C22.1114 14.211 22.1944 13.6999 21.9468 13.2757L16.3859 3.74933C16.1383 3.32515 15.6525 3.14605 15.303 3.35006L14.8804 3.59678Z" fill="#161516" stroke="#161516" stroke-width="0.7"/>
<path d="M18.0134 10.9057L10.4063 15.3462C10.2895 15.4144 10.128 15.3547 10.0454 15.2131L8.84777 13.1615C8.76502 13.0197 8.79271 12.8499 8.90937 12.7818L16.5169 8.34106C16.6337 8.27287 16.7952 8.33254 16.8778 8.47412L18.0754 10.5258C18.1581 10.6674 18.1305 10.8374 18.0137 10.9056L18.0134 10.9057ZM10.318 14.71L17.5029 10.516L16.6047 8.97722L9.41977 13.1712L10.318 14.71Z" fill="#161516" stroke="#161516" stroke-width="0.7"/>
<path d="M23.0849 7.94538L22.2397 8.43879C22.1228 8.50698 21.9614 8.44731 21.8788 8.30573L20.6811 6.25405C20.5984 6.11228 20.6261 5.94247 20.7427 5.87437L21.588 5.38095C22.1709 5.04072 22.9804 5.33947 23.393 6.04644C23.8059 6.75333 23.6678 7.60516 23.085 7.9454L23.0849 7.94538ZM22.1516 7.80244L22.7855 7.43243C23.135 7.22841 23.218 6.71731 22.9704 6.29314C22.7228 5.86898 22.2369 5.68986 21.8874 5.89388L21.2536 6.26389L22.1516 7.80244Z" fill="#161516" stroke="#161516" stroke-width="0.7"/>
<path d="M6.17967 17.8135L5.33454 18.3068C4.75168 18.647 3.94221 18.3483 3.52953 17.6413C3.11685 16.9343 3.25491 16.0825 3.83761 15.7423L4.68289 15.2489C4.79971 15.1807 4.96115 15.2404 5.04379 15.382L6.24141 17.4337C6.32406 17.5752 6.29647 17.7452 6.17966 17.8134L6.17967 17.8135ZM4.13692 16.2551C3.7874 16.4591 3.70449 16.9702 3.95208 17.3944C4.19968 17.8185 4.6855 17.9977 5.03501 17.7936L5.66888 17.4236L4.77065 15.8848L4.13692 16.2551Z" fill="#161516" stroke="#161516" stroke-width="0.7"/>
</svg>
