<svg width="180" height="31" viewBox="0 0 180 31" fill="none" xmlns="http://www.w3.org/2000/svg">
<path d="M8.08 24H16.84V30H0.24V1.8H8.08V24ZM41.3284 18.52C41.3284 19.1333 41.2884 19.7467 41.2084 20.36H26.3684C26.4484 21.5867 26.7818 22.5067 27.3684 23.12C27.9818 23.7067 28.7551 24 29.6884 24C30.9951 24 31.9284 23.4133 32.4884 22.24H40.8484C40.5018 23.7867 39.8218 25.1733 38.8084 26.4C37.8218 27.6 36.5684 28.5467 35.0484 29.24C33.5284 29.9333 31.8484 30.28 30.0084 30.28C27.7951 30.28 25.8218 29.8133 24.0884 28.88C22.3818 27.9467 21.0351 26.6133 20.0484 24.88C19.0884 23.1467 18.6084 21.1067 18.6084 18.76C18.6084 16.4133 19.0884 14.3867 20.0484 12.68C21.0084 10.9467 22.3418 9.61333 24.0484 8.68C25.7818 7.74667 27.7684 7.28 30.0084 7.28C32.2218 7.28 34.1818 7.73333 35.8884 8.64C37.5951 9.54667 38.9284 10.8533 39.8884 12.56C40.8484 14.24 41.3284 16.2267 41.3284 18.52ZM33.3284 16.56C33.3284 15.6 33.0084 14.8533 32.3684 14.32C31.7284 13.76 30.9284 13.48 29.9684 13.48C29.0084 13.48 28.2218 13.7467 27.6084 14.28C26.9951 14.7867 26.5951 15.5467 26.4084 16.56H33.3284ZM57.7769 23.32V30H54.3769C48.6435 30 45.7769 27.16 45.7769 21.48V14.08H43.0169V7.56H45.7769V2.12H53.6569V7.56H57.7369V14.08H53.6569V21.6C53.6569 22.2133 53.7902 22.6533 54.0569 22.92C54.3502 23.1867 54.8302 23.32 55.4969 23.32H57.7769ZM63.2928 1.8H71.2128L66.6128 13.08H61.3728L63.2928 1.8ZM84.7609 30.28C82.7343 30.28 80.9209 29.9467 79.3209 29.28C77.7476 28.5867 76.4943 27.6533 75.5609 26.48C74.6543 25.28 74.1476 23.9333 74.0409 22.44H81.6409C81.7476 23.16 82.0809 23.72 82.6409 24.12C83.2009 24.52 83.8943 24.72 84.7209 24.72C85.3609 24.72 85.8676 24.5867 86.2409 24.32C86.6143 24.0533 86.8009 23.7067 86.8009 23.28C86.8009 22.72 86.4943 22.3067 85.8809 22.04C85.2676 21.7733 84.2543 21.48 82.8409 21.16C81.2409 20.84 79.9076 20.48 78.8409 20.08C77.7743 19.68 76.8409 19.0267 76.0409 18.12C75.2676 17.2133 74.8809 15.9867 74.8809 14.44C74.8809 13.1067 75.2409 11.9067 75.9609 10.84C76.6809 9.74667 77.7343 8.88 79.1209 8.24C80.5343 7.6 82.2276 7.28 84.2009 7.28C87.1343 7.28 89.4409 8 91.1209 9.44C92.8009 10.88 93.7743 12.7733 94.0409 15.12H86.9609C86.8276 14.4 86.5076 13.8533 86.0009 13.48C85.5209 13.08 84.8676 12.88 84.0409 12.88C83.4009 12.88 82.9076 13 82.5609 13.24C82.2409 13.48 82.0809 13.8133 82.0809 14.24C82.0809 14.7733 82.3876 15.1867 83.0009 15.48C83.6143 15.7467 84.6009 16.0267 85.9609 16.32C87.5876 16.6667 88.9343 17.0533 90.0009 17.48C91.0943 17.9067 92.0409 18.6 92.8409 19.56C93.6676 20.4933 94.0809 21.7733 94.0809 23.4C94.0809 24.7067 93.6943 25.88 92.9209 26.92C92.1743 27.96 91.0943 28.7867 89.6809 29.4C88.2943 29.9867 86.6543 30.28 84.7609 30.28ZM123.592 11.08C123.138 10.3333 122.512 9.76 121.712 9.36C120.938 8.96 120.018 8.76 118.952 8.76C116.978 8.76 115.418 9.4 114.272 10.68C113.152 11.96 112.592 13.68 112.592 15.84C112.592 18.2667 113.192 20.12 114.392 21.4C115.618 22.6533 117.392 23.28 119.712 23.28C122.458 23.28 124.418 22.04 125.592 19.56H117.712V13.92H132.352V21.52C131.738 23.0133 130.832 24.4133 129.632 25.72C128.458 27.0267 126.965 28.1067 125.152 28.96C123.338 29.7867 121.272 30.2 118.952 30.2C116.125 30.2 113.618 29.6 111.432 28.4C109.272 27.1733 107.592 25.48 106.392 23.32C105.218 21.1333 104.632 18.64 104.632 15.84C104.632 13.0667 105.218 10.6 106.392 8.44C107.592 6.25333 109.272 4.56 111.432 3.36C113.592 2.13333 116.085 1.52 118.912 1.52C122.458 1.52 125.392 2.37333 127.712 4.08C130.032 5.78667 131.472 8.12 132.032 11.08H123.592ZM146.305 30.28C144.065 30.28 142.052 29.8133 140.265 28.88C138.505 27.9467 137.118 26.6133 136.105 24.88C135.092 23.1467 134.585 21.1067 134.585 18.76C134.585 16.44 135.092 14.4133 136.105 12.68C137.145 10.9467 138.545 9.61333 140.305 8.68C142.092 7.74667 144.105 7.28 146.345 7.28C148.585 7.28 150.585 7.74667 152.345 8.68C154.132 9.61333 155.532 10.9467 156.545 12.68C157.585 14.4133 158.105 16.44 158.105 18.76C158.105 21.08 157.585 23.12 156.545 24.88C155.532 26.6133 154.132 27.9467 152.345 28.88C150.558 29.8133 148.545 30.28 146.305 30.28ZM146.305 23.48C147.398 23.48 148.305 23.08 149.025 22.28C149.772 21.4533 150.145 20.28 150.145 18.76C150.145 17.24 149.772 16.08 149.025 15.28C148.305 14.48 147.412 14.08 146.345 14.08C145.278 14.08 144.385 14.48 143.665 15.28C142.945 16.08 142.585 17.24 142.585 18.76C142.585 20.3067 142.932 21.48 143.625 22.28C144.318 23.08 145.212 23.48 146.305 23.48ZM179.431 0.359998L178.511 19.44H171.831L170.911 0.359998H179.431ZM175.191 30.32C173.804 30.32 172.684 29.9467 171.831 29.2C171.004 28.4267 170.591 27.4533 170.591 26.28C170.591 25.1067 171.004 24.1333 171.831 23.36C172.684 22.5867 173.804 22.2 175.191 22.2C176.551 22.2 177.644 22.5867 178.471 23.36C179.324 24.1333 179.751 25.1067 179.751 26.28C179.751 27.4267 179.324 28.3867 178.471 29.16C177.644 29.9333 176.551 30.32 175.191 30.32Z" fill="url(#paint0_linear_218_365)"/>
<defs>
<linearGradient id="paint0_linear_218_365" x1="20.411" y1="-5.56436" x2="197.614" y2="38.6535" gradientUnits="userSpaceOnUse">
<stop stop-color="#14919B"/>
<stop offset="1" stop-color="#E2F163"/>
</linearGradient>
</defs>
</svg>
