<svg width="347" height="301" viewBox="0 0 347 301" fill="none" xmlns="http://www.w3.org/2000/svg">
<path d="M209.125 29.5943C204.601 28.3566 200.018 27.5199 195.407 27.09C174.587 25.2298 154.151 32.219 135.95 45.2102C117.749 58.2013 100.709 74.4012 85.0566 92.2444C81.1702 96.6752 77.3579 101.232 73.7028 105.988C53.6693 132.067 -0.694002 175.393 6.10257 211.645C12.8991 247.898 46.1973 277.077 77.1173 284.595C108.037 292.114 133.183 264.699 175.314 264.699C217.444 264.699 252.783 285.95 283.022 279.286C313.262 272.622 333.652 239.939 334.67 190.425C335.22 163.798 330.881 136.407 320.147 113.501C309.297 90.3602 291.494 74.5818 273.339 62.3311C254.18 49.4061 233.323 36.8845 212.267 30.4913C211.218 30.1742 210.171 29.8752 209.125 29.5943Z" fill="#E2F163"/>
<path opacity="0.7" d="M209.125 29.5943C204.601 28.3566 200.018 27.5199 195.407 27.09C174.587 25.2298 154.151 32.219 135.95 45.2102C117.749 58.2013 100.709 74.4012 85.0566 92.2444C81.1702 96.6752 77.3579 101.232 73.7028 105.988C53.6693 132.067 -0.694002 175.393 6.10257 211.645C12.8991 247.898 46.1973 277.077 77.1173 284.595C108.037 292.114 133.183 264.699 175.314 264.699C217.444 264.699 252.783 285.95 283.022 279.286C313.262 272.622 333.652 239.939 334.67 190.425C335.22 163.798 330.881 136.407 320.147 113.501C309.297 90.3602 291.494 74.5818 273.339 62.3311C254.18 49.4061 233.323 36.8845 212.267 30.4913C211.218 30.1742 210.171 29.8752 209.125 29.5943Z" fill="white"/>
<path d="M336.946 248.716H17.5119" stroke="black" stroke-miterlimit="10"/>
<path d="M47.0486 147.063C47.0524 147.053 47.0545 147.043 47.0549 147.032C47.0552 147.022 47.0538 147.011 47.0507 147.002C47.0477 146.992 47.043 146.983 47.037 146.976C47.031 146.969 47.0239 146.963 47.0162 146.96C47.0015 146.952 46.9849 146.952 46.9702 146.96C46.9554 146.968 46.9437 146.983 46.9376 147.002C45.1778 152.479 43.7846 158.143 42.7736 163.931C41.7503 169.719 40.9779 175.578 40.4602 181.479L40.1364 185.916C40.0855 186.656 40.0253 187.391 39.9837 188.131L39.8911 190.358C39.8449 191.845 39.7709 193.326 39.7385 194.813L39.7894 199.262L39.8264 201.489C39.8541 202.236 39.8958 202.976 39.9328 203.717C40.0207 205.198 40.0901 206.679 40.1919 208.16C40.414 211.115 40.7517 214.053 41.1172 216.979C41.1202 216.997 41.1278 217.013 41.1387 217.025C41.1495 217.037 41.1631 217.044 41.1774 217.045C41.1933 217.045 41.2086 217.037 41.2199 217.022C41.2312 217.007 41.2375 216.988 41.2375 216.967C41.2375 215.48 41.182 214.005 41.1589 212.524C41.1357 211.043 41.0247 209.58 41.0432 208.099C41.0617 206.618 41.0154 205.15 41.0062 203.675L40.9738 201.465L41.0015 199.256V194.837L41.0941 190.425L41.1265 188.215C41.1265 187.481 41.1912 186.746 41.2236 186.012L41.4318 181.599C41.8197 175.722 42.4608 169.877 43.3519 164.093C44.2042 158.288 45.441 152.59 47.0486 147.063Z" fill="#ABABAB"/>
<path d="M47.5344 170.155C47.5389 170.136 47.5375 170.116 47.5306 170.098C47.5238 170.08 47.5119 170.066 47.4974 170.059C47.4901 170.055 47.4823 170.054 47.4745 170.054C47.4667 170.054 47.4591 170.057 47.4521 170.062C47.4451 170.066 47.4389 170.073 47.434 170.08C47.429 170.088 47.4254 170.097 47.4233 170.107C45.4791 177.475 44.1891 185.108 43.5786 192.857C43.2779 196.722 42.9447 200.586 42.9031 204.475C42.8273 208.361 42.9339 212.249 43.2223 216.118C43.2232 216.136 43.2288 216.153 43.238 216.166C43.2473 216.179 43.2597 216.188 43.2732 216.19C43.2895 216.191 43.3053 216.184 43.318 216.171C43.3307 216.157 43.3394 216.139 43.3426 216.118C43.685 212.247 43.8978 208.388 44.1014 204.53C44.305 200.671 44.342 196.806 44.5363 192.947C44.7218 189.096 45.074 185.261 45.5912 181.461C46.0798 177.649 46.7285 173.875 47.5344 170.155Z" fill="#ABABAB"/>
<path d="M57.3707 178.282C57.3595 178.268 57.3446 178.26 57.3291 178.26C57.3135 178.26 57.2986 178.268 57.2874 178.282C54.8265 180.34 52.61 182.855 50.7083 185.747C49.7521 187.202 48.8916 188.758 48.1359 190.401L47.6084 191.701L47.192 193.049C47.0518 193.496 46.9313 193.952 46.8311 194.416C46.7247 194.873 46.6044 195.337 46.5119 195.794C45.7583 199.487 45.3039 203.272 45.1563 207.088C45.0095 210.884 45.1179 214.689 45.4802 218.46C45.4827 218.478 45.4894 218.494 45.4993 218.507C45.5092 218.52 45.5219 218.529 45.5357 218.532C45.5436 218.533 45.5515 218.532 45.5591 218.528C45.5666 218.525 45.5736 218.52 45.5796 218.513C45.5856 218.507 45.5906 218.499 45.5942 218.489C45.5977 218.48 45.5999 218.47 45.6005 218.46L46.35 207.196C46.6507 203.476 46.8126 199.726 47.4465 196.089C47.5251 195.638 47.6269 195.198 47.7148 194.747C47.7961 194.299 47.8965 193.856 48.0156 193.423L48.3672 192.122L48.8299 190.888C49.5143 189.253 50.3036 187.697 51.1895 186.235C52.9429 183.247 55.0239 180.61 57.3661 178.409C57.374 178.402 57.3806 178.393 57.3853 178.382C57.39 178.371 57.3927 178.359 57.3931 178.347C57.3936 178.335 57.3918 178.322 57.3879 178.311C57.384 178.3 57.3781 178.29 57.3707 178.282Z" fill="#ABABAB"/>
<path d="M52.6145 192.748C51.2727 193.874 50.3752 195.65 49.621 197.432C48.9002 199.255 48.3384 201.177 47.9462 203.163C47.8259 203.657 47.7333 204.15 47.6501 204.65L47.3817 206.149C47.2363 207.153 47.1389 208.169 47.0902 209.189C47.0902 210.212 47.0578 211.23 47.0902 212.247C47.1477 213.27 47.2512 214.287 47.4002 215.293C47.4002 215.314 47.4066 215.334 47.4178 215.349C47.4291 215.363 47.4444 215.372 47.4604 215.372C47.4763 215.372 47.4916 215.363 47.5029 215.349C47.5142 215.334 47.5205 215.314 47.5205 215.293C47.702 214.301 47.8395 213.296 47.9323 212.283C48.0572 211.296 48.1729 210.309 48.2654 209.321C48.3579 208.334 48.4782 207.359 48.5338 206.372C48.5893 205.384 48.6957 204.397 48.8622 203.434C49.1237 201.483 49.5536 199.577 50.1438 197.751C50.6724 195.888 51.5335 194.215 52.6561 192.869C52.6613 192.862 52.6654 192.854 52.6682 192.845C52.671 192.837 52.6724 192.827 52.6724 192.818C52.6724 192.808 52.671 192.799 52.6682 192.79C52.6654 192.781 52.6613 192.773 52.6561 192.766C52.6505 192.76 52.6439 192.755 52.6367 192.752C52.6296 192.749 52.622 192.748 52.6145 192.748Z" fill="#ABABAB"/>
<path d="M38.8131 204.03C38.4893 199.027 37.8554 194.079 37.2539 189.136C36.6525 184.194 35.9909 179.258 35.2969 174.333C34.6029 169.409 33.8256 164.509 32.9835 159.614C32.9782 159.598 32.9685 159.584 32.9563 159.575C32.944 159.567 32.9298 159.564 32.9162 159.568C32.9026 159.571 32.8903 159.581 32.8815 159.595C32.8727 159.609 32.8679 159.626 32.8679 159.644C33.5248 164.575 34.1217 169.517 34.6815 174.46C35.2413 179.402 35.8012 184.351 36.2823 189.311C36.7635 194.271 37.1198 199.244 37.5963 204.192L38.9843 219.074C38.9854 219.093 38.9916 219.11 39.0018 219.123C39.012 219.137 39.0255 219.145 39.0398 219.146C39.0558 219.146 39.0711 219.138 39.0824 219.123C39.0936 219.108 39.1 219.089 39.1 219.068C39.1462 217.816 39.1462 216.564 39.1694 215.305C39.1925 214.047 39.1324 212.795 39.1139 211.543C39.1185 209.026 38.9566 206.528 38.8131 204.03Z" fill="#ABABAB"/>
<path d="M36.509 203.958C36.3008 201.977 36.0464 200.009 35.7318 198.046L35.1951 195.126C35.0146 194.157 34.8481 193.182 34.6306 192.219C33.8634 188.343 32.8815 184.544 31.6927 180.853L31.23 179.474L30.7211 178.132C30.3926 177.223 29.9993 176.362 29.6292 175.489C28.8743 173.738 27.9404 172.128 26.8532 170.703C26.8483 170.693 26.8418 170.685 26.8341 170.679C26.8265 170.673 26.8179 170.669 26.809 170.668C26.8001 170.667 26.7912 170.668 26.7827 170.672C26.7743 170.676 26.7667 170.683 26.7604 170.691C26.754 170.699 26.7492 170.709 26.7462 170.72C26.7432 170.731 26.7421 170.743 26.7431 170.754C26.744 170.766 26.7469 170.777 26.7515 170.787C26.7561 170.797 26.7624 170.805 26.7699 170.812C27.7813 172.285 28.6356 173.929 29.3099 175.7C29.6431 176.591 29.9947 177.464 30.2815 178.385L30.7442 179.745L31.1421 181.13C32.2067 184.834 33.0618 188.635 33.7006 192.502C34.0523 194.428 34.2836 196.385 34.5705 198.329L34.9313 201.255C35.0609 202.23 35.2228 203.199 35.3246 204.18C35.5652 206.131 35.8428 208.081 36.1065 210.038C36.3702 211.994 36.6108 213.957 36.9301 215.913C36.9331 215.931 36.9406 215.948 36.9515 215.96C36.9624 215.972 36.976 215.979 36.9902 215.98C37.0062 215.98 37.0215 215.971 37.0327 215.957C37.044 215.942 37.0504 215.922 37.0504 215.901C37.0504 213.903 37.0226 211.904 36.9439 209.881C36.8653 207.859 36.6663 205.944 36.509 203.958Z" fill="#ABABAB"/>
<path d="M33.312 204.21C32.5995 201.592 31.776 199.021 30.8784 196.505C29.972 193.992 28.9492 191.554 27.8155 189.203C27.8042 189.191 27.7904 189.185 27.7762 189.185C27.762 189.185 27.7482 189.191 27.7369 189.203C27.7235 189.214 27.7137 189.231 27.7094 189.251C27.7051 189.271 27.7067 189.292 27.7138 189.311C28.6986 191.75 29.5715 194.263 30.3278 196.836C31.1051 199.394 31.8083 201.989 32.3959 204.626C32.9835 207.263 33.4277 209.942 33.969 212.584C34.5103 215.227 34.9915 217.9 35.6161 220.573C35.6197 220.589 35.6269 220.603 35.6368 220.614C35.6467 220.625 35.6588 220.631 35.6716 220.633C35.6799 220.634 35.6882 220.632 35.6961 220.629C35.7039 220.625 35.7111 220.62 35.7172 220.612C35.7233 220.605 35.7281 220.596 35.7314 220.586C35.7347 220.576 35.7364 220.566 35.7364 220.555C35.7713 217.757 35.579 214.962 35.1627 212.217C34.7112 209.488 34.0924 206.811 33.312 204.21Z" fill="#ABABAB"/>
<path d="M33.1964 212.952C32.8039 211.315 32.2337 209.76 31.503 208.334C30.8248 206.869 29.9967 205.53 29.0416 204.355C28.5565 203.784 28.0331 203.27 27.4778 202.82C26.9301 202.355 26.3309 202.002 25.7012 201.772C25.6876 201.768 25.6733 201.77 25.6606 201.777C25.648 201.785 25.6378 201.798 25.6318 201.815C25.628 201.824 25.6259 201.834 25.6255 201.845C25.6251 201.855 25.6265 201.866 25.6296 201.876C25.6327 201.885 25.6374 201.894 25.6434 201.901C25.6493 201.908 25.6564 201.914 25.6641 201.917C26.7981 202.626 27.8028 203.642 28.6113 204.897C29.4311 206.118 30.1219 207.477 30.6656 208.936C31.2485 210.375 31.5493 211.946 32.0536 213.439C32.2803 214.198 32.5162 214.962 32.7614 215.721C32.9798 216.512 33.2379 217.285 33.5341 218.032C33.5386 218.045 33.5457 218.056 33.5548 218.063C33.5638 218.071 33.5743 218.075 33.585 218.075C33.5929 218.075 33.6008 218.074 33.6084 218.071C33.6159 218.068 33.6229 218.063 33.6289 218.056C33.6349 218.049 33.6399 218.041 33.6435 218.032C33.647 218.023 33.6492 218.013 33.6498 218.002C33.6714 217.148 33.6467 216.293 33.5757 215.444C33.4878 214.613 33.349 213.776 33.1964 212.952Z" fill="#ABABAB"/>
<path d="M33.4323 166.754C33.4323 166.754 27.1401 164.864 25.6873 156.044C24.2345 147.225 28.9259 151 24.7157 137.136C20.5054 123.272 21.477 120.123 22.9437 116.132C24.4103 112.141 25.2015 113.405 26.4923 118.654C27.7832 123.904 32.4653 132.115 34.2374 147.448C36.0094 162.781 33.4323 166.754 33.4323 166.754Z" fill="#E2F163"/>
<path d="M45.8641 151.861C45.8641 151.861 41.6678 149.97 41.5058 139.676C41.3439 129.382 44.5733 131.483 45.0545 118.672C45.5356 105.862 46.188 96.8257 47.96 96.621C49.732 96.4163 54.4374 102.918 56.0336 117.203C57.6298 131.489 53.933 140.934 50.7083 145.136C47.4835 149.338 45.8641 151.861 45.8641 151.861Z" fill="#E2F163"/>
<path d="M31.1745 179.161C31.1745 179.161 30.2075 171.6 28.269 168.03C26.3304 164.46 22.134 161.336 19.3904 154.377C16.6468 147.418 13.5793 144.089 13.7412 153.962C13.9032 163.834 17.2899 168.873 21.4863 172.232C25.6827 175.591 31.1745 179.161 31.1745 179.161Z" fill="#E2F163"/>
<path d="M29.3979 192.188C29.3979 192.188 25.5253 182.526 19.8947 175.381C14.264 168.235 9.71601 164.671 11.3353 168.241C12.9547 171.811 14.8886 171.6 17.6322 177.873C20.3759 184.146 19.5708 188.793 23.4433 192.369C27.3159 195.945 29.3979 192.188 29.3979 192.188Z" fill="#E2F163"/>
<path d="M28.912 204.578C28.7547 203.946 28.5928 199.328 23.101 195.548C17.6091 191.767 12.4596 193.236 13.0935 195.126C13.7273 197.017 17.1187 200.165 20.5193 202.055C23.9199 203.946 28.912 204.578 28.912 204.578Z" fill="#E2F163"/>
<path d="M45.5403 179.583C45.5403 179.583 43.1206 175.591 44.416 167.193C45.7115 158.796 48.6124 160.891 51.8418 156.478C55.0712 152.065 54.4235 151.439 57.6529 146.816C60.8823 142.192 63.7879 139.676 65.0787 141.566C66.3696 143.457 64.431 149.338 62.497 152.697C60.5631 156.056 57.491 157.742 56.0197 161.938C54.5484 166.134 55.2147 172.864 51.4994 176.013C47.7842 179.161 45.5403 179.583 45.5403 179.583Z" fill="#E2F163"/>
<path d="M53.6138 181.894C53.6138 181.894 59.4249 173.286 63.6213 166.983C67.8177 160.68 69.4324 155.852 69.5943 160.048C69.7563 164.244 71.0471 167.609 67.6558 173.075C64.2644 178.541 53.6138 181.894 53.6138 181.894Z" fill="#E2F163"/>
<path d="M50.5463 195.758C50.5463 195.758 50.3844 192.399 59.5868 184.627C68.7893 176.856 72.6618 175.381 71.6902 178.535C70.7186 181.69 66.6888 184.814 62.3305 190.503C57.9721 196.192 50.5463 195.758 50.5463 195.758Z" fill="#E2F163"/>
<path d="M33.8163 165.875C33.8163 165.875 31.6603 150.825 29.3979 140.097C27.1354 129.37 25.6965 122.874 25.6965 122.874" stroke="#ABABAB" stroke-linecap="round" stroke-linejoin="round"/>
<path d="M45.494 152.017C45.494 152.017 49.4128 135.685 50.7083 125.818C52.0037 115.951 50.5463 108.595 49.8986 104.188" stroke="#ABABAB" stroke-linecap="round" stroke-linejoin="round"/>
<path d="M30.6656 178.848C28.926 174.959 26.9356 171.27 24.7157 167.819C21.167 162.359 18.4234 159.422 16.8087 154.166" stroke="#ABABAB" stroke-linecap="round" stroke-linejoin="round"/>
<path d="M45.5403 179.583C45.5403 179.583 46.8311 169.499 49.8986 164.25C52.9661 159 59.101 150.807 61.5208 145.588" stroke="#ABABAB" stroke-linecap="round" stroke-linejoin="round"/>
<path d="M28.5327 204.349C28.5327 204.349 23.101 199.75 19.2285 197.227" stroke="#ABABAB" stroke-linecap="round" stroke-linejoin="round"/>
<path d="M44.3327 248.897H37.2262C36.6109 248.898 36.0092 248.662 35.4971 248.218C34.9849 247.775 34.5852 247.143 34.3484 246.405C32.0351 239.181 25.8261 218.273 29.5598 212.349C33.1177 206.709 48.4412 206.709 51.9991 212.349C55.7329 218.273 49.5331 239.169 47.2105 246.405C46.9732 247.143 46.5734 247.774 46.0614 248.217C45.5493 248.661 44.9479 248.897 44.3327 248.897Z" fill="#ABABAB"/>
<g opacity="0.3">
<path d="M295.061 47.1908H254.841V112.068H295.061V47.1908Z" stroke="black" stroke-miterlimit="10"/>
<path d="M285.132 63.21H264.775V96.0491H285.132V63.21Z" fill="black" stroke="black" stroke-miterlimit="10"/>
</g>
<g opacity="0.3">
<path d="M189.351 164.159H253.106V161.035H189.351V164.159Z" stroke="black" stroke-linecap="round" stroke-linejoin="round"/>
<path d="M192.307 248.716H250.15V164.25H192.307V248.716Z" stroke="black" stroke-linecap="round" stroke-linejoin="round"/>
<path d="M194.385 186.506H248.133V168.181H194.385V186.506Z" stroke="black" stroke-linecap="round" stroke-linejoin="round"/>
<path d="M218.661 179.029H224.037V175.652H218.661V179.029Z" fill="#263238" stroke="black" stroke-linecap="round" stroke-linejoin="round"/>
<path d="M194.385 209.659H248.133V191.334H194.385V209.659Z" stroke="black" stroke-linecap="round" stroke-linejoin="round"/>
<path d="M218.661 202.188H224.037V198.811H218.661V202.188Z" fill="#263238" stroke="black" stroke-linecap="round" stroke-linejoin="round"/>
<path d="M194.385 232.914H248.133V214.589H194.385V232.914Z" stroke="black" stroke-linecap="round" stroke-linejoin="round"/>
<path d="M218.661 225.437H224.037V222.06H218.661V225.437Z" fill="#263238" stroke="black" stroke-linecap="round" stroke-linejoin="round"/>
</g>
<g opacity="0.3">
<path d="M222.839 133.138V132.284H218.212V133.138C218.195 135.264 217.854 137.364 217.21 139.318C216.566 141.272 215.631 143.041 214.46 144.522C213.786 145.373 213.25 146.39 212.881 147.513C212.513 148.637 212.32 149.845 212.313 151.066C212.313 156.43 215.991 160.776 220.53 160.776C225.069 160.776 228.742 156.43 228.742 151.066C228.737 149.845 228.544 148.637 228.177 147.514C227.809 146.391 227.273 145.374 226.6 144.522C225.426 143.042 224.489 141.274 223.844 139.32C223.198 137.366 222.856 135.265 222.839 133.138Z" fill="black" stroke="black" stroke-miterlimit="10"/>
<path d="M237.908 91.4619H203.472V132.271H237.908V91.4619Z" stroke="black" stroke-miterlimit="10"/>
</g>
<path d="M102.855 284.27H335.183L315.826 252.696H122.218L102.855 284.27Z" fill="#ABABAB"/>
<path d="M142.376 54.1318V241.655C142.376 242.879 142.191 244.09 141.831 245.221C141.471 246.352 140.944 247.379 140.279 248.244C139.614 249.11 138.824 249.796 137.955 250.264C137.086 250.733 136.155 250.974 135.214 250.974H72.9394C71.9989 250.974 71.0675 250.733 70.1986 250.264C69.3296 249.796 68.5401 249.11 67.875 248.244C67.21 247.379 66.6824 246.352 66.3225 245.221C65.9626 244.09 65.7773 242.879 65.7773 241.655V54.1318C65.7773 51.6613 66.5313 49.2919 67.8734 47.5445C69.2156 45.797 71.0361 44.8145 72.9348 44.8129H99.6676V44.9212C100.334 48.0396 101.87 50.0683 103.573 50.0683H104.563C106.265 50.0683 107.801 48.0396 108.463 44.9212L108.491 44.8129H135.214C136.155 44.8129 137.086 45.0539 137.955 45.5222C138.824 45.9906 139.614 46.677 140.279 47.5423C140.944 48.4077 141.471 49.435 141.831 50.5656C142.191 51.6962 142.376 52.908 142.376 54.1318Z" fill="white" stroke="#263238" stroke-linecap="round" stroke-linejoin="round"/>
<path d="M147.244 98.9207V80.1924H145.944V56.2148C145.944 52.2951 144.747 48.536 142.617 45.7644C140.487 42.9927 137.598 41.4357 134.585 41.4357H73.564C70.5516 41.4357 67.6625 42.9927 65.5324 45.7644C63.4022 48.536 62.2055 52.2951 62.2055 56.2148V246.748C62.2055 248.689 62.4993 250.61 63.0701 252.403C63.641 254.197 64.4776 255.826 65.5324 257.198C66.5871 258.571 67.8392 259.659 69.2173 260.402C70.5954 261.145 72.0724 261.527 73.564 261.527H134.585C136.077 261.527 137.554 261.145 138.932 260.402C140.31 259.659 141.562 258.571 142.617 257.198C143.671 255.826 144.508 254.197 145.079 252.403C145.65 250.61 145.944 248.689 145.944 246.748V114.91H147.244V103.815H145.944V98.9207H147.244ZM142.376 236.177C142.376 240.098 141.179 243.859 139.048 246.631C136.917 249.404 134.027 250.962 131.013 250.962H77.1404C74.1267 250.962 71.2365 249.404 69.1055 246.631C66.9745 243.859 65.7773 240.098 65.7773 236.177V59.598C65.7785 55.6778 66.9763 51.9187 69.1071 49.1472C71.238 46.3758 74.1275 44.8189 77.1404 44.8189H99.6677V44.9273C100.334 48.0456 101.87 50.0744 103.573 50.0744H104.563C106.265 50.0744 107.801 48.0456 108.463 44.9273L108.491 44.8189H131.013C134.026 44.8189 136.916 46.3758 139.047 49.1472C141.177 51.9187 142.375 55.6778 142.376 59.598V236.177Z" fill="#E2F163" stroke="#263238" stroke-linecap="round" stroke-linejoin="round"/>
<path d="M133.674 43.4705H74.4893C73.0498 43.4689 71.6241 43.8364 70.2938 44.5521C68.9635 45.2678 67.7547 46.3176 66.7363 47.6415C65.718 48.9654 64.9102 50.5374 64.359 52.2678C63.8078 53.9981 63.5241 55.8528 63.5241 57.7258V245.237C63.5241 247.11 63.8078 248.965 64.359 250.695C64.9102 252.425 65.718 253.997 66.7363 255.321C67.7547 256.645 68.9635 257.695 70.2938 258.41C71.6241 259.126 73.0498 259.494 74.4893 259.492H133.674C136.579 259.492 139.366 257.99 141.421 255.317C143.475 252.643 144.63 249.018 144.63 245.237V57.7258C144.63 53.9451 143.475 50.3192 141.421 47.6458C139.366 44.9724 136.579 43.4705 133.674 43.4705ZM142.376 236.712C142.376 240.493 141.222 244.119 139.167 246.793C137.113 249.466 134.326 250.968 131.42 250.968H76.7333C73.8276 250.968 71.0409 249.466 68.9862 246.793C66.9316 244.119 65.7773 240.493 65.7773 236.712V59.0683C65.7773 55.2886 66.931 51.6636 68.9846 48.9904C71.0382 46.3171 73.8237 44.8145 76.7286 44.8129H99.6677V44.9213C100.334 48.0396 101.87 50.0684 103.573 50.0684H104.563C106.265 50.0684 107.801 48.0396 108.463 44.9213L108.491 44.8129H131.42C134.326 44.8145 137.112 46.3169 139.166 48.99C141.221 51.663 142.375 55.288 142.376 59.0683V236.712Z" fill="#263238" stroke="#263238" stroke-linecap="round" stroke-linejoin="round"/>
<path d="M104.91 45.5232C104.911 45.2479 104.849 44.9785 104.732 44.749C104.615 44.5195 104.448 44.3404 104.253 44.2342C104.058 44.128 103.843 44.0996 103.635 44.1526C103.428 44.2056 103.237 44.3375 103.087 44.5318C102.937 44.726 102.835 44.9738 102.793 45.2437C102.751 45.5136 102.772 45.7935 102.853 46.048C102.934 46.3024 103.071 46.52 103.247 46.673C103.423 46.8261 103.629 46.9078 103.841 46.9078C103.981 46.9086 104.12 46.8734 104.25 46.8042C104.379 46.7349 104.497 46.6331 104.596 46.5044C104.696 46.3758 104.774 46.2229 104.828 46.0545C104.882 45.8861 104.91 45.7056 104.91 45.5232Z" fill="white"/>
<path d="M72.5878 50.8389C72.5878 52.2416 71.3756 52.7472 71.371 53.8489V53.9211H72.5461V54.3967H70.9777V53.9934C70.9777 52.4944 72.1899 52.1874 72.1899 50.8871C72.1899 50.4115 72.065 50.1586 71.7688 50.1586C71.4727 50.1586 71.3478 50.4295 71.3478 50.8449V51.2543H70.9777V50.875C70.9777 50.1647 71.2275 49.671 71.7781 49.671C72.3287 49.671 72.5878 50.1285 72.5878 50.8389Z" fill="#263238"/>
<path d="M74.5449 50.8329V50.9533C74.5616 51.1526 74.5283 51.3536 74.4499 51.5261C74.3715 51.6987 74.2522 51.8336 74.1099 51.9105C74.2531 51.9877 74.3729 52.1235 74.4514 52.2973C74.5299 52.4711 74.5627 52.6734 74.5449 52.8737V53.2349C74.5449 53.9452 74.2904 54.4088 73.7352 54.4088C73.18 54.4088 72.9348 53.9452 72.9348 53.2349V52.9158H73.3095V53.265C73.3095 53.6864 73.4391 53.9392 73.7259 53.9392C74.0128 53.9392 74.147 53.6924 74.147 53.2228V52.8616C74.147 52.4041 73.9989 52.1814 73.6843 52.1693H73.4668V51.7058H73.7028C73.7647 51.7066 73.8261 51.69 73.8826 51.6571C73.9392 51.6242 73.9896 51.5758 74.0305 51.5152C74.0713 51.4546 74.1016 51.3833 74.1194 51.306C74.1371 51.2288 74.1417 51.1475 74.1331 51.0677V50.851C74.1331 50.3754 74.0035 50.1286 73.7121 50.1286C73.4206 50.1286 73.2957 50.3874 73.2957 50.8028V51.0436H72.9209V50.8329C72.9209 50.1225 73.1754 49.6289 73.7213 49.6289C74.2673 49.6289 74.5449 50.1225 74.5449 50.8329Z" fill="#263238"/>
<path d="M75.3175 51.17V51.8322H74.952V51.17H75.3175ZM75.3175 53.7045V54.3546H74.952V53.7165L75.3175 53.7045Z" fill="#263238"/>
<path d="M76.1272 51.6035C76.1791 51.4808 76.2566 51.3796 76.3507 51.3114C76.4448 51.2433 76.5517 51.211 76.6593 51.2182C77.1219 51.2182 77.3209 51.6577 77.3209 52.3199V53.2349C77.3209 53.9453 77.0618 54.4088 76.5158 54.4088C75.9699 54.4088 75.7108 53.9453 75.7108 53.2349V52.9219H76.0855V53.265C76.0855 53.6864 76.2197 53.9393 76.5066 53.9393C76.7934 53.9393 76.923 53.6864 76.923 53.265V52.3741C76.923 51.9527 76.7888 51.6998 76.5066 51.6998C76.4544 51.6966 76.4022 51.7071 76.3532 51.7306C76.3042 51.7542 76.2594 51.7904 76.2214 51.8371C76.1834 51.8837 76.153 51.9398 76.132 52.0021C76.1111 52.0644 76.1 52.1315 76.0994 52.1995V52.3078H75.7293L75.8265 49.7192H77.2376V50.1828H76.1827L76.1272 51.6035Z" fill="#263238"/>
<path d="M79.3103 50.8269V50.9112H78.9402V50.7908C78.9402 50.3754 78.806 50.1286 78.5145 50.1286C78.2231 50.1286 78.0796 50.3814 78.0796 50.8811V51.9226C78.1215 51.7691 78.2005 51.6374 78.3048 51.5473C78.4091 51.4572 78.533 51.4135 78.658 51.4229C79.1206 51.4229 79.3242 51.8563 79.3242 52.5306V53.2349C79.3242 53.9453 79.0512 54.4088 78.5053 54.4088C77.9593 54.4088 77.6817 53.9453 77.6817 53.2349V50.8269C77.6817 50.0925 77.9362 49.6229 78.5053 49.6229C79.0744 49.6229 79.3103 50.1105 79.3103 50.8269ZM78.0796 52.5667V53.265C78.0796 53.6864 78.2138 53.9393 78.5053 53.9393C78.7968 53.9393 78.9263 53.6864 78.9263 53.265V52.5667C78.9263 52.1513 78.7921 51.8985 78.5053 51.8985C78.2184 51.8985 78.0796 52.1513 78.0796 52.5667Z" fill="#263238"/>
<path d="M118.383 51.0315H117.374V54.3184H118.383V51.0315Z" fill="#263238"/>
<path d="M119.729 50.3694H118.72V54.3125H119.729V50.3694Z" fill="#263238"/>
<path d="M121.08 49.9058H120.071V54.3184H121.08V49.9058Z" fill="#263238"/>
<path d="M122.426 49.0931H121.418V54.3185H122.426V49.0931Z" fill="#263238"/>
<path d="M134.932 54.2281H128.871V49.4121H134.932V54.2281ZM129.209 53.7886H134.599V49.8456H129.209V53.7886Z" fill="#263238"/>
<path d="M132.915 50.3212H129.713V53.3131H132.915V50.3212Z" fill="#263238"/>
<path d="M135.487 51.2483H134.724V52.3861H135.487V51.2483Z" fill="#263238"/>
<path d="M126.646 53.1807C126.605 53.178 126.566 53.1636 126.53 53.1386C125.299 52.1814 124.48 53.0664 124.448 53.1386C124.405 53.192 124.348 53.2217 124.288 53.2217C124.229 53.2217 124.172 53.192 124.129 53.1386C124.107 53.1117 124.09 53.0794 124.079 53.0437C124.067 53.008 124.061 52.9697 124.061 52.9309C124.061 52.8922 124.067 52.8538 124.079 52.8181C124.09 52.7824 124.107 52.7502 124.129 52.7232C124.17 52.6751 125.211 51.5192 126.738 52.7232C126.764 52.7425 126.787 52.7683 126.805 52.7992C126.823 52.8302 126.836 52.8655 126.843 52.9031C126.851 52.9408 126.852 52.98 126.848 53.0184C126.843 53.0568 126.833 53.0936 126.817 53.1266C126.793 53.15 126.765 53.1669 126.736 53.1762C126.706 53.1855 126.676 53.187 126.646 53.1807Z" fill="#263238"/>
<path d="M127.104 52.1874C127.063 52.1885 127.023 52.1738 126.988 52.1453C125.202 50.7667 124.004 52.1032 123.99 52.1152C123.969 52.1431 123.945 52.1652 123.917 52.1803C123.89 52.1955 123.86 52.2033 123.83 52.2033C123.801 52.2033 123.771 52.1955 123.744 52.1803C123.716 52.1652 123.692 52.1431 123.671 52.1152C123.633 52.0554 123.614 51.9789 123.618 51.9015C123.623 51.8241 123.65 51.7518 123.694 51.6998C123.694 51.6998 125.156 50.0744 127.219 51.6998C127.271 51.7399 127.308 51.8048 127.323 51.8804C127.338 51.956 127.329 52.0361 127.298 52.1032C127.274 52.1369 127.243 52.1622 127.209 52.1769C127.175 52.1916 127.139 52.1952 127.104 52.1874Z" fill="#263238"/>
<path d="M127.52 51.0436C127.48 51.0425 127.44 51.028 127.405 51.0015C125.142 49.2497 123.638 50.8992 123.578 50.9654C123.557 50.9944 123.53 51.0174 123.502 51.0327C123.473 51.0481 123.442 51.0556 123.411 51.0547C123.38 51.0538 123.349 51.0446 123.321 51.0276C123.292 51.0106 123.267 50.9862 123.246 50.956C123.226 50.9257 123.21 50.8902 123.2 50.8517C123.191 50.8132 123.187 50.7725 123.19 50.7321C123.193 50.6918 123.202 50.6526 123.217 50.6171C123.232 50.5817 123.253 50.5506 123.278 50.5259C123.278 50.5259 125.082 48.5152 127.636 50.4958C127.687 50.5359 127.724 50.6008 127.739 50.6764C127.754 50.7519 127.745 50.832 127.715 50.8992C127.694 50.9419 127.665 50.9774 127.631 51.0026C127.597 51.0278 127.559 51.0418 127.52 51.0436Z" fill="#263238"/>
<path d="M125.966 53.6743C125.966 53.8199 125.933 53.9624 125.871 54.0837C125.809 54.2051 125.721 54.2999 125.617 54.3565C125.514 54.413 125.401 54.4287 125.291 54.4016C125.181 54.3744 125.079 54.3057 124.999 54.2039C124.919 54.1021 124.864 53.9719 124.84 53.8295C124.817 53.6871 124.826 53.5388 124.867 53.4032C124.908 53.2676 124.979 53.1508 125.07 53.0673C125.162 52.9838 125.271 52.9374 125.383 52.9338C125.459 52.9314 125.534 52.9488 125.605 52.9849C125.675 53.021 125.74 53.0752 125.794 53.1442C125.848 53.2132 125.892 53.2956 125.921 53.3867C125.95 53.4777 125.966 53.5755 125.966 53.6743Z" fill="#263238"/>
<path d="M103.943 166.537C97.6856 166.541 91.5682 164.13 86.3644 159.609C81.1605 155.089 77.1039 148.661 74.7077 141.14C72.3116 133.62 71.6834 125.343 72.9028 117.358C74.1221 109.372 77.1342 102.037 81.558 96.2792C85.9818 90.5215 91.6186 86.6002 97.7554 85.0113C103.892 83.4224 110.253 84.2373 116.034 87.3529C121.815 90.4685 126.756 95.7448 130.232 102.515C133.707 109.284 135.562 117.243 135.561 125.385C135.552 136.293 132.217 146.751 126.29 154.466C120.363 162.18 112.326 166.521 103.943 166.537ZM103.943 92.2626C98.9098 92.2626 93.99 94.2045 89.8053 97.8426C85.6206 101.481 82.359 106.652 80.4331 112.702C78.5071 118.752 78.0031 125.409 78.985 131.832C79.9669 138.255 82.3904 144.154 85.9492 148.785C89.508 153.415 94.0421 156.569 98.9783 157.846C103.914 159.124 109.031 158.468 113.681 155.962C118.33 153.456 122.305 149.212 125.101 143.768C127.897 138.323 129.389 131.921 129.389 125.373C129.38 116.595 126.695 108.181 121.925 101.974C117.155 95.7678 110.689 92.2753 103.943 92.2626Z" fill="#E8E8E8"/>
<path d="M105.164 88.5903C105.153 89.5736 105.412 90.5297 105.896 91.2851C106.38 92.0406 107.056 92.5454 107.801 92.708C113.187 93.7977 118.156 97.1271 121.966 102.198C125.775 107.269 128.221 113.809 128.936 120.839C129.651 127.869 128.597 135.011 125.932 141.197C123.267 147.383 119.134 152.279 114.152 155.154C109.17 158.029 103.606 158.727 98.2937 157.144C92.9811 155.562 88.2053 151.783 84.6808 146.374C81.1563 140.965 79.0728 134.217 78.7418 127.138C78.4109 120.06 79.8505 113.033 82.8451 107.108C83.2796 106.251 83.4534 105.214 83.3329 104.199C83.2123 103.184 82.8059 102.264 82.1927 101.618C81.8452 101.249 81.442 100.979 81.0093 100.826C80.5765 100.673 80.1239 100.64 79.6808 100.729C79.2376 100.819 78.8138 101.028 78.4368 101.344C78.0597 101.659 77.7379 102.075 77.492 102.563C73.7423 109.99 71.941 118.797 72.3575 127.667C72.7739 136.536 75.3857 144.993 79.8024 151.771C84.2191 158.549 90.2033 163.284 96.8602 165.27C103.517 167.255 110.489 166.383 116.734 162.785C122.978 159.187 128.16 153.055 131.504 145.307C134.848 137.558 136.174 128.61 135.285 119.799C134.396 110.988 131.339 102.789 126.571 96.4267C121.803 90.0645 115.58 85.8813 108.833 84.5027C108.38 84.4148 107.918 84.4544 107.478 84.6191C107.037 84.7838 106.63 85.0696 106.282 85.4572C105.934 85.8448 105.654 86.3251 105.461 86.8657C105.268 87.4062 105.167 87.9944 105.164 88.5903Z" fill="#E2F163"/>
<path d="M130.611 116.92C130.18 116.396 129.65 116.028 129.075 115.855C128.862 115.768 128.653 115.663 128.45 115.542C128.26 115.388 128.085 115.207 127.927 115C127.465 114.428 126.854 113.736 126.114 113.856H126.026C125.951 113.874 125.878 113.903 125.808 113.941L125.739 113.977L125.591 114.085L125.526 114.139C125.471 114.193 125.415 114.248 125.364 114.308C125.356 114.323 125.345 114.335 125.332 114.344C125.271 114.423 125.216 114.507 125.165 114.597L125.137 114.633L124.818 115.181H124.878C124.755 115.498 124.656 115.831 124.582 116.174C123.116 116.282 119.905 116.541 118.452 116.704H118.322C117.047 116.954 115.821 117.524 114.714 118.383L114.251 118.69C114.112 118.781 113.987 118.853 113.881 118.913C113.657 119.012 113.423 119.066 113.187 119.076C112.761 119.076 112.234 119.076 111.655 119.076H111.105H110.762C110.168 119.05 109.574 119.066 108.981 119.124C108.727 119.124 108.486 119.154 108.245 119.124C107.705 119.097 107.167 119.018 106.635 118.889L106.21 118.799C105.389 118.534 104.537 118.47 103.697 118.612C102.946 118.85 102.207 119.152 101.486 119.515L100.982 119.75L100.778 119.84L100.556 119.936L100.376 120.015L100.116 120.105L99.9776 120.153C99.8669 120.191 99.7539 120.217 99.6399 120.231C98.8737 120.207 98.1226 119.95 97.4468 119.479H97.396L97.2433 119.395C96.2254 118.823 92.7878 116.945 91.3026 116.987L90.84 117.017H90.7613L90.3866 117.065H90.3403C90.0291 117.11 89.7201 117.178 89.4149 117.27C89.4435 116.787 89.3597 116.305 89.1744 115.885C89.1466 115.78 89.131 115.671 89.1281 115.56C89.0801 114.839 88.8545 114.157 88.485 113.615C87.7123 112.411 87.134 111.87 85.7553 111.912C85.3459 111.907 84.9415 112.029 84.5754 112.268C84.2094 112.506 83.8922 112.855 83.6501 113.284C83.5342 113.554 83.3767 113.79 83.1875 113.977C83.0826 114.066 82.9668 114.131 82.8451 114.169C82.5767 114.278 82.1742 114.446 82.2205 115.114C82.3034 115.533 82.4826 115.909 82.734 116.192C82.6522 116.576 82.6619 116.983 82.7618 117.36C82.8081 117.498 82.8682 117.625 82.9237 117.757C83.081 118.112 83.1736 118.359 83.0949 118.522C83.0414 118.649 82.9794 118.77 82.9099 118.883C82.8456 118.965 82.7954 119.063 82.7627 119.172C82.73 119.281 82.7155 119.398 82.7202 119.515C82.7325 119.582 82.7558 119.645 82.7886 119.699C82.8213 119.753 82.8627 119.797 82.9099 119.828L83.317 120.111C83.5506 120.474 83.7699 120.851 83.974 121.243C84.0646 121.503 84.2272 121.71 84.4295 121.821C84.6319 121.933 84.859 121.941 85.0659 121.845C85.4056 121.764 85.7195 121.555 85.9681 121.243C86.3845 121.381 87.5412 121.761 87.8558 121.791C87.9807 121.791 88.1935 121.845 88.4156 121.899C88.3879 122.686 88.463 123.474 88.6377 124.229C88.8459 125.066 88.9569 128.407 89.0171 130.201C89.0448 131.14 89.0541 131.405 89.0679 131.483C89.0818 131.561 89.0679 131.585 89.0679 131.663C88.9316 132.477 88.9316 133.318 89.0679 134.132C89.2761 135.372 89.489 138.538 89.5306 139.363L89.4427 139.423C89.2779 139.438 89.1125 139.438 88.9477 139.423C88.7091 139.389 88.4677 139.422 88.2398 139.52C88.0191 139.678 87.8192 139.881 87.6476 140.122C87.3144 140.23 87.0091 140.344 86.8286 140.423C86.5325 140.549 86.5048 140.754 86.5279 140.904C86.551 141.055 86.5881 141.259 87.2404 141.259C87.3977 141.259 87.5874 141.259 87.8188 141.211C88.3369 141.145 88.9569 141.109 89.6093 141.109H89.7712C89.9465 141.146 90.1259 141.133 90.2969 141.07C90.4679 141.008 90.6264 140.898 90.7613 140.748C91.0112 140.748 91.534 140.687 91.6496 140.146C91.7237 139.809 91.8532 138.279 92.029 135.601C92.2048 133.024 92.3483 131.29 92.4454 130.598C92.5172 129.273 92.5172 127.943 92.4454 126.619C92.7356 126.886 93.07 127.061 93.4216 127.13C93.8687 127.156 94.3165 127.108 94.7541 126.986L94.9299 126.932C95.0809 127.002 95.2355 127.058 95.3926 127.1H95.4296L95.5684 127.142H95.6517C96.1991 127.274 96.7523 127.361 97.3081 127.401C99.0292 127.552 99.6214 127.708 99.6723 127.708C99.7232 127.708 100.066 127.769 100.598 127.811H100.658C101.023 127.811 101.467 127.859 101.944 127.859H102.249C102.194 128.244 102.134 128.726 102.083 129.28V129.43C102.06 129.665 102.041 129.906 102.023 130.158C102.02 130.176 102.02 130.195 102.023 130.213C102.023 130.429 101.995 130.646 101.986 130.875C101.986 130.941 101.986 131.007 101.986 131.073C101.986 131.326 101.986 131.573 101.986 131.832V131.928C101.986 132.163 101.986 132.392 101.986 132.627C101.986 132.705 101.986 132.777 101.986 132.849C101.986 133.12 101.986 133.391 102.023 133.668C102.235 136.678 102.879 140.037 103.827 141.031L103.924 141.139C103.984 141.187 104.048 141.228 104.114 141.259C104.18 141.287 104.248 141.305 104.317 141.314C104.471 141.341 104.625 141.353 104.78 141.35H104.831H105.085H105.234H105.493H105.696L106.228 141.283C107.274 141.145 108.542 140.904 109.703 140.681L109.842 140.651L110.193 140.573L110.587 140.489H110.628C111.831 140.218 112.793 139.989 113.062 139.923C113.952 139.757 114.855 139.735 115.75 139.857C115.796 139.976 115.861 140.082 115.941 140.166C116.02 140.25 116.113 140.311 116.213 140.344C116.615 140.473 117.025 140.556 117.439 140.591C117.901 140.657 118.433 140.736 118.799 140.838C119.098 140.931 119.377 141.112 119.613 141.368C119.746 141.523 119.904 141.636 120.076 141.699V141.735H120.21C120.283 141.732 120.354 141.708 120.419 141.666C120.483 141.623 120.54 141.562 120.585 141.488C120.724 141.235 120.663 140.916 120.543 140.284L120.52 140.164C120.33 139.182 119.696 138.358 118.521 137.154C118.1 136.708 117.656 136.197 117.267 135.745C116.268 134.577 115.879 134.174 115.611 134.306C115.5 134.36 115.38 134.499 115.148 134.999L115.121 135.053L114.996 135.33C114.834 135.697 114.653 136.166 114.454 136.726L113.649 136.594L112.238 136.365C110.321 136.118 108.388 136.201 106.487 136.612C106.487 136.479 106.524 136.311 106.557 136.112C106.612 135.721 106.7 135.215 106.788 134.685L106.899 134.083C107.015 133.421 107.144 132.687 107.269 131.916L107.431 130.875L107.473 130.61C107.473 130.568 107.473 130.52 107.473 130.471C107.496 130.327 107.519 130.177 107.538 130.038V129.924C107.538 129.773 107.579 129.617 107.598 129.472V129.406C107.598 129.249 107.639 129.093 107.663 128.942V128.828C107.663 128.672 107.704 128.515 107.723 128.364C107.797 127.762 107.852 127.269 107.898 126.847L108.389 126.745C108.731 126.667 109.041 126.589 109.314 126.492C110.365 126.125 113.4 124.885 115.421 124.012L116.134 123.699C116.926 123.326 117.699 122.886 118.447 122.381C119.782 121.45 121.201 120.742 122.671 120.274L122.958 120.189L123.365 120.075L123.888 119.924C125.184 119.557 125.873 119.377 126.165 119.322C126.217 119.423 126.285 119.508 126.365 119.572C126.445 119.635 126.534 119.675 126.627 119.69C126.883 119.711 127.139 119.649 127.372 119.509C127.534 119.419 127.706 119.362 127.881 119.341C128.358 119.326 128.832 119.447 129.269 119.696C129.362 119.756 129.459 119.84 129.565 119.924C129.879 120.226 130.241 120.432 130.625 120.526V120.671L130.99 120.466C131.045 120.435 131.096 120.394 131.143 120.346C131.28 120.194 131.364 119.977 131.379 119.744C131.363 118.72 131.094 117.73 130.611 116.92Z" fill="#263238"/>
<path d="M95.5129 194.819V193.013L99.2466 185.44C99.5242 184.874 99.7833 184.351 100.019 183.857C100.254 183.372 100.448 182.855 100.598 182.316C100.758 181.712 100.834 181.076 100.824 180.438C100.852 179.721 100.741 179.007 100.5 178.361C100.383 178.108 100.214 177.904 100.012 177.771C99.81 177.638 99.5832 177.581 99.3577 177.608C99.1624 177.592 98.9666 177.627 98.7821 177.712C98.5976 177.797 98.4283 177.929 98.2843 178.102C98.0217 178.462 97.8408 178.91 97.7615 179.396C97.6609 179.961 97.6112 180.538 97.6134 181.118V181.804H95.6748V181.142C95.6578 180.135 95.7784 179.132 96.0311 178.18C96.2396 177.396 96.6393 176.721 97.1693 176.26C97.7999 175.765 98.5296 175.526 99.2651 175.573C100.45 175.573 101.332 176.009 101.912 176.88C102.53 177.905 102.84 179.19 102.781 180.492C102.792 181.219 102.716 181.944 102.555 182.641C102.409 183.242 102.212 183.819 101.967 184.363C101.727 184.898 101.458 185.446 101.171 186.012L97.7985 192.712H102.425V194.837L95.5129 194.819Z" fill="#263238"/>
<path d="M104.179 194.819V193.013L107.917 185.44C108.195 184.874 108.449 184.35 108.685 183.857C108.921 183.372 109.117 182.855 109.268 182.316C109.425 181.711 109.502 181.076 109.495 180.437C109.521 179.72 109.408 179.006 109.166 178.361C109.05 178.108 108.88 177.903 108.678 177.77C108.476 177.637 108.249 177.581 108.023 177.608C107.829 177.592 107.634 177.628 107.45 177.713C107.267 177.797 107.098 177.93 106.955 178.102C106.684 178.458 106.496 178.907 106.413 179.396C106.314 179.961 106.266 180.539 106.27 181.118V181.804H104.327V181.142C104.31 180.135 104.43 179.132 104.683 178.18C104.893 177.395 105.294 176.721 105.826 176.26C106.455 175.766 107.183 175.527 107.917 175.573C109.106 175.573 109.985 176.007 110.568 176.88C111.185 177.907 111.494 179.19 111.438 180.492C111.446 181.219 111.37 181.943 111.211 182.641C111.064 183.242 110.866 183.819 110.619 184.363C110.378 184.898 110.115 185.446 109.823 186.012L106.45 192.712H111.077V194.837L104.179 194.819Z" fill="#263238"/>
<path d="M99.1217 72.7637V66.7437H100.126C100.404 66.7258 100.682 66.796 100.935 66.9484C101.131 67.0732 101.284 67.2876 101.366 67.5504C101.455 67.8765 101.498 68.2215 101.491 68.5678V70.7771C101.498 71.143 101.455 71.5078 101.366 71.8547C101.287 72.1295 101.141 72.3625 100.949 72.5169C100.712 72.6822 100.445 72.7612 100.177 72.7456L99.1217 72.7637ZM99.7648 72.1617H100.13C100.308 72.1847 100.487 72.1203 100.63 71.9811C100.739 71.8455 100.804 71.6599 100.81 71.4634C100.835 71.1897 100.846 70.9142 100.843 70.6386V68.6882C100.847 68.4359 100.832 68.1838 100.797 67.9357C100.788 67.8511 100.766 67.7698 100.732 67.6972C100.698 67.6245 100.652 67.5622 100.598 67.5143C100.449 67.4082 100.281 67.3602 100.112 67.3758H99.7648V72.1617Z" fill="#263238"/>
<path d="M101.875 72.7638L102.855 66.7438H103.475L104.461 72.7638H103.85L103.642 71.2467H102.717L102.495 72.7638H101.875ZM102.8 70.6508H103.568L103.184 67.9418L102.8 70.6508Z" fill="#263238"/>
<path d="M105.511 72.7637V70.6386L104.512 66.7557H105.113L105.817 69.6574L106.515 66.7557H107.117L106.126 70.6386V72.7637H105.511Z" fill="#263238"/>
<path d="M109.467 72.7638V67.7913C109.425 67.8137 109.382 67.8298 109.337 67.8394L109.06 67.9116L108.787 67.9779H108.662V67.3759L108.889 67.2976L109.148 67.1712C109.239 67.1209 109.326 67.0584 109.407 66.9846C109.485 66.911 109.555 66.8239 109.615 66.7257H110.078V72.7457L109.467 72.7638Z" fill="#263238"/>
<path d="M74.7531 218.857C77.0247 218.857 78.8662 216.461 78.8662 213.505C78.8662 210.55 77.0247 208.154 74.7531 208.154C72.4815 208.154 70.64 210.55 70.64 213.505C70.64 216.461 72.4815 218.857 74.7531 218.857Z" fill="#263238"/>
<path d="M82.9839 214.842H133.382" stroke="#263238" stroke-miterlimit="10"/>
<path d="M74.7531 233.576C77.0247 233.576 78.8662 231.18 78.8662 228.224C78.8662 225.269 77.0247 222.872 74.7531 222.872C72.4815 222.872 70.64 225.269 70.64 228.224C70.64 231.18 72.4815 233.576 74.7531 233.576Z" fill="#263238"/>
<path d="M82.9839 229.567H133.382" stroke="#263238" stroke-miterlimit="10"/>
<path d="M182.416 213.548C182.416 213.548 183.049 228.598 182.573 231.884C182.096 235.171 181.467 244.25 181.148 248.987C180.829 253.725 180.223 262.791 179.885 264.23C179.547 265.669 177.308 265.47 177.308 265.47C177.308 265.47 173.708 264.868 172.917 264.868C172.126 264.868 167.365 265.47 167.365 265.47C167.958 264.581 168.653 263.816 169.424 263.2C170.372 262.598 173.787 263.622 174.296 262.279C175.116 259.613 175.61 256.795 175.758 253.93C175.915 250.637 177.021 209.635 177.021 209.635L182.416 213.548Z" fill="#263238" stroke="#263238" stroke-miterlimit="10"/>
<path d="M151.722 180.829C151.722 180.829 150.603 184.682 151.26 186.452C151.917 188.221 153.018 189.781 152.379 191.346C151.741 192.911 150.7 193.844 151.417 194.356C152.134 194.867 152.939 195.397 152.939 195.397C153.793 196.732 154.595 198.123 155.34 199.563C155.9 200.809 156.381 201.538 158.218 201.122C159.361 200.832 160.401 200.065 161.179 198.937C161.179 198.937 166.699 200.809 167.902 200.918C169.105 201.026 172.302 201.953 172.302 201.953C172.302 201.953 176.544 206.769 178.316 210.495C180.088 214.222 184.396 219.032 186.797 219.236C188.512 219.307 190.226 219.068 191.891 218.526C191.891 218.526 193.973 219.778 199.974 220.296C205.975 220.814 208.043 221.349 208.043 221.349C208.043 221.349 217.884 222.806 223.884 220.832C229.885 218.857 236.927 218.225 240.767 216.877C244.607 215.528 257.09 210.417 263.9 207.401C270.711 204.385 276.503 198.534 286.15 195.722C295.797 192.911 298.674 192.273 298.674 192.273C298.674 192.273 299.683 190.966 298.531 187.499C297.379 184.031 296.01 183.749 295.292 183.749C294.575 183.749 277.794 185.025 271.553 185.753C265.312 186.482 259.672 191.617 256.711 193.182C253.75 194.747 246.944 193.031 239.823 193.784C232.703 194.536 226.938 190.774 221.978 192.122C217.018 193.471 211.096 197.324 208.057 197.637C205.017 197.95 201.908 195.957 199.507 194.627C197.105 193.296 184.701 186.397 179.663 186.608C174.624 186.819 172.112 188.011 172.112 188.011C172.112 188.011 171.312 187.908 170.914 187.806C170.516 187.704 170.752 185.825 165.551 181.66C160.351 177.494 152.925 177.915 151.722 180.829Z" fill="white" stroke="#263238" stroke-miterlimit="10"/>
<path d="M154.285 173.539C153.816 174.595 153.186 175.517 152.435 176.248C151.236 177.391 149.316 176.976 149.474 179.161C149.631 181.346 153.716 185.825 156.756 186.764C159.796 187.704 158.607 186.241 158.607 186.241C158.607 186.241 159.805 183.429 161.327 184.886C162.849 186.343 162.285 188.841 162.285 188.841C162.285 188.841 164.927 189.365 166.287 191.033C167.647 192.7 168.767 191.448 171.09 189.154C173.412 186.861 172.112 183.532 171.649 182.286C171.187 181.039 171.807 178.535 169.405 174.791C167.004 171.046 165.241 169.27 160.767 169.373C159.511 169.356 158.27 169.724 157.144 170.448C156.018 171.172 155.038 172.23 154.285 173.539Z" fill="#263238" stroke="#263238" stroke-miterlimit="10"/>
<path d="M171.603 175.363L176.665 178.65C175.915 175.73 173.791 175.272 172.547 175.272C173.824 174.965 175.827 173.689 174.68 168.542C173.051 161.252 163.294 159.837 161.304 162.66C159.315 165.484 160.767 169.379 160.767 169.379C161.71 171.441 162.734 173.438 163.835 175.363C165.824 178.884 171.649 182.286 173.593 181.003C175.536 179.721 171.603 175.363 171.603 175.363Z" fill="#263238" stroke="#263238" stroke-miterlimit="10"/>
<path d="M162.285 188.841C162.195 189.391 162.038 189.92 161.822 190.407C161.742 190.652 161.622 190.873 161.47 191.052C161.318 191.232 161.139 191.367 160.943 191.448C160.943 191.448 161.503 193.736 161.262 195.403" stroke="#263238" stroke-miterlimit="10"/>
<path d="M152.925 188.637L153.406 190.196" stroke="#263238" stroke-linecap="round" stroke-linejoin="round"/>
<path d="M152.046 187.493C152.101 187.33 152.185 187.186 152.293 187.076C152.4 186.966 152.527 186.892 152.662 186.861C152.796 186.83 152.935 186.843 153.065 186.898C153.195 186.954 153.312 187.051 153.406 187.18" stroke="#263238" stroke-miterlimit="10"/>
<path d="M153.883 196.132C153.883 196.132 154.526 196.342 154.924 194.675" stroke="#263238" stroke-miterlimit="10"/>
<path d="M176.415 186.861C174.953 187.535 171.566 189.805 171.034 196.409C170.904 198.219 171.083 200.044 171.557 201.754L172.288 201.959C172.288 201.959 176.53 206.775 178.302 210.501C180.075 214.228 184.382 219.038 186.783 219.242C188.503 219.313 190.222 219.071 191.891 218.526C192.623 218.9 193.383 219.176 194.158 219.351L194.44 219.152C194.44 219.152 199.067 202.994 199.493 194.585C197.091 193.23 184.687 186.355 179.649 186.566C178.418 186.62 177.34 186.716 176.415 186.861Z" fill="#E2F163" stroke="#263238" stroke-miterlimit="10"/>
<path d="M177.086 207.088C178.228 207.705 179.456 208.009 180.693 207.983C181.929 207.958 183.149 207.602 184.276 206.938C188.273 204.71 190.559 196.986 189.184 193.423C187.81 189.859 182.244 186.439 178.113 187.33C173.981 188.221 171.83 193.585 171.945 197.456C172.061 201.327 174.8 205.619 177.086 207.088Z" fill="white" stroke="#263238" stroke-miterlimit="10"/>
<path d="M178.127 188.39C178.127 188.39 174.587 187.348 172.302 193.29C170.369 198.473 170.002 204.412 171.275 209.929C172.302 214.089 172.616 234.298 172.764 234.726C172.912 235.153 171.811 238.729 172.653 243.696C173.495 248.662 174.319 262.279 174.319 262.279C173.384 262.997 172.391 263.577 171.358 264.007C170.016 264.483 165.982 265.759 164.538 266.415C163.095 267.071 165.075 267.39 167.573 267.059C170.072 266.728 172.575 266.686 173.727 266.686C174.879 266.686 176.285 267.095 177.308 265.482C178.33 263.869 177.747 260.792 177.715 260.353C177.683 259.913 179.274 238.958 179.751 236.213C180.227 233.468 180.588 227.737 180.588 227.737L180.852 202.958" fill="white"/>
<path d="M178.127 188.39C178.127 188.39 174.587 187.348 172.302 193.29C170.369 198.473 170.002 204.412 171.275 209.929C172.302 214.089 172.616 234.298 172.764 234.726C172.912 235.153 171.811 238.729 172.653 243.696C173.495 248.662 174.319 262.279 174.319 262.279C173.384 262.997 172.391 263.577 171.358 264.007C170.016 264.483 165.982 265.759 164.538 266.415C163.095 267.071 165.075 267.39 167.573 267.059C170.072 266.728 172.575 266.686 173.727 266.686C174.879 266.686 176.285 267.095 177.308 265.482C178.33 263.869 177.747 260.792 177.715 260.353C177.683 259.913 179.274 238.958 179.751 236.213C180.227 233.468 180.588 227.737 180.588 227.737L180.852 202.958" stroke="#263238" stroke-miterlimit="10"/>
<path d="M218.106 219.76C218.106 219.76 215.936 230.903 216.718 242.197C217.5 253.49 220.141 265.675 223.338 267.156C226.535 268.636 249.146 263.291 253.37 262.249C257.594 261.208 263.304 262.099 263.304 262.099C263.304 262.099 261.587 255.417 260.791 254.526C259.996 253.635 259.533 253.785 250.613 252.298C241.692 250.811 231.319 253.039 230.519 253.334C229.719 253.629 231.778 243.979 233.489 233.13C235.201 222.282 235.77 214.565 235.77 214.565L218.106 219.76Z" fill="white" stroke="#263238" stroke-miterlimit="10"/>
<path d="M258.867 253.334C258.867 253.334 261.606 245.61 262.522 245.164C263.438 244.719 267.657 250.516 271.655 254.676C275.652 258.836 277.591 261.358 278.164 264.308C278.738 267.258 278.965 268.167 277.822 268.317C276.679 268.468 275.768 266.09 273.14 265.344C270.512 264.597 265.737 264.308 264.46 263.712C263.183 263.116 263.322 262.075 263.322 262.075L260.81 254.501L258.867 253.334Z" fill="#263238" stroke="#263238" stroke-miterlimit="10"/>
<path d="M278.164 264.332C277.591 261.358 275.652 258.836 271.655 254.7C267.657 250.564 263.433 244.743 262.522 245.189C262.253 245.321 261.823 246.086 261.356 247.097C262.587 247.568 263.703 248.448 264.594 249.649C267.333 253.063 268.25 255.886 269.619 256.777C270.988 257.668 273.959 258.414 275.671 261.677C277.383 264.94 277.267 267.324 277.841 268.366C278.988 268.191 278.734 267.288 278.164 264.332Z" fill="white" stroke="#263238" stroke-miterlimit="10"/>
<path d="M252.477 262.472C246.611 263.887 226.374 268.552 223.357 267.15C220.165 265.669 217.537 253.484 216.736 242.191C216.149 233.901 217.162 225.69 217.745 221.915C217.953 220.549 218.106 219.76 218.106 219.76L235.807 214.559C235.807 214.559 235.261 221.909 233.647 232.33C233.605 232.595 233.559 232.86 233.522 233.131C231.81 243.967 229.756 253.635 230.551 253.334C231.347 253.033 241.743 250.811 250.645 252.298L251.751 252.479C252.445 255.728 252.691 259.111 252.477 262.472Z" fill="#E2F163" stroke="#263238" stroke-miterlimit="10"/>
<path d="M235.807 214.559C235.807 214.559 235.261 221.909 233.647 232.33L233.091 230.446C229.941 223.613 220.789 222.198 217.745 221.915C217.953 220.549 218.106 219.76 218.106 219.76L235.807 214.559Z" fill="#263238" stroke="#263238" stroke-miterlimit="10"/>
<path d="M298.665 192.261C298.718 192.635 298.866 192.975 299.085 193.227C299.304 193.479 299.581 193.628 299.873 193.651C301.002 193.922 302.649 192.447 303.981 192.447C305.314 192.447 307.576 192.712 309.117 193.784C310.658 194.855 313.128 197.528 314.567 196.053C316.006 194.578 314.151 188.426 312.615 186.018C311.079 183.61 307.373 182.809 305.522 181.611C303.671 180.413 301.103 175.188 297.814 175.995C294.524 176.801 293.395 183.748 293.395 183.748C293.395 183.748 296.171 183.345 297.61 185.886C299.049 188.426 298.665 192.261 298.665 192.261Z" fill="#263238" stroke="#263238" stroke-miterlimit="10"/>
<path d="M314.225 196.318C314.347 196.251 314.462 196.164 314.567 196.059C316.001 194.59 314.151 188.426 312.615 186.018C311.079 183.61 307.373 182.809 305.522 181.611C303.671 180.413 301.103 175.188 297.814 175.995C296.78 176.307 295.874 177.113 295.274 178.252C295.894 178.198 298.721 177.999 300.178 179.071C301.825 180.275 304.291 182.948 306.447 183.478C308.603 184.007 312.406 186.156 313.434 190.569C314.118 193.507 314.299 195.199 314.225 196.318Z" fill="white" stroke="#263238" stroke-miterlimit="10"/>
<path d="M292.086 193.916C289.657 194.771 289.555 194.723 286.145 195.722C276.494 198.54 270.692 204.379 263.891 207.401C257.09 210.423 244.607 215.522 240.758 216.877C236.908 218.231 229.871 218.857 223.871 220.826C221.529 221.508 219.136 221.854 216.736 221.855C214.849 221.897 213.035 221.825 211.554 221.717C207.7 210.712 207.747 201.995 208.158 197.595C209.757 197.253 211.322 196.686 212.827 195.903C215.663 194.603 218.98 192.893 221.955 192.08C226.915 190.726 232.675 194.488 239.795 193.748C246.916 193.007 253.726 194.735 256.687 193.146C259.649 191.556 265.293 186.445 271.534 185.717C275.527 185.248 283.777 184.688 289.454 184.188C291.235 186.807 291.808 191.243 292.086 193.916Z" fill="#E2F163" stroke="#263238" stroke-miterlimit="10"/>
<path d="M216.75 221.843C214.862 221.885 213.049 221.813 211.568 221.705C207.714 210.7 207.76 201.983 208.172 197.582C209.766 197.243 211.326 196.68 212.827 195.903C213.419 201.947 214.807 214.715 216.75 221.843Z" fill="#263238" stroke="#263238" stroke-miterlimit="10"/>
</svg>
