<svg width="183" height="184" viewBox="0 0 183 184" fill="none" xmlns="http://www.w3.org/2000/svg">
<circle cx="94" cy="87" r="62" fill="#E2F163"/>
<path fill-rule="evenodd" clip-rule="evenodd" d="M109.835 73.477L94.5 67.1194C94.1159 66.9602 93.6841 66.9601 93.3 67.1194L77.9648 73.477C77.3807 73.7192 77 74.2886 77 74.9201V82.6486C77 93.2902 83.4415 102.863 93.3087 106.884C93.6877 107.039 94.1123 107.039 94.4913 106.884C104.358 102.863 110.8 93.2903 110.8 82.6486V74.9201C110.8 74.2886 110.419 73.7192 109.835 73.477ZM92.992 89.1744L100.898 81.2798C101.617 80.5625 102.781 80.5625 103.5 81.2798C104.218 81.9971 104.218 83.1601 103.5 83.8773L94.2927 93.0706C93.5742 93.788 92.4096 93.7878 91.6914 93.0706L86.5506 87.9375C85.8322 87.2202 85.8322 86.0572 86.5506 85.34C87.269 84.6227 88.4337 84.6226 89.152 85.34L92.992 89.1744Z" fill="white"/>
<circle cx="174" cy="35" r="9" fill="#E2F163"/>
<circle cx="46" cy="175" r="9" fill="#E2F163"/>
<circle cx="156.5" cy="153.5" r="4.5" fill="#E2F163"/>
<circle cx="12.5" cy="94.5" r="4.5" fill="#E2F163"/>
<circle cx="9" cy="9" r="9" fill="#E2F163"/>
</svg>
