<svg width="315" height="150" viewBox="0 0 315 150" fill="none" xmlns="http://www.w3.org/2000/svg">
<rect width="315" height="150" rx="22" fill="#E2F163"/>
<mask id="mask0_485_472" style="mask-type:alpha" maskUnits="userSpaceOnUse" x="0" y="0" width="315" height="150">
<rect width="315" height="150" rx="22" fill="white"/>
</mask>
<g mask="url(#mask0_485_472)">
<ellipse opacity="0.3" cx="89" cy="104.5" rx="68" ry="67.5" fill="white"/>
<path d="M87.0229 197.162C84.1383 197.167 81.2616 196.863 78.4422 196.254C73.5144 195.244 68.8725 193.155 64.8509 190.139C60.8292 187.123 57.528 183.255 55.185 178.812C53.3258 174.657 51.9446 170.305 51.068 165.839L50.8658 164.988C47.9767 152.707 44.3364 139.719 37.6193 127.986C36.5359 126.097 35.3513 124.209 34.2101 122.393C31.4492 118.28 29.1116 113.9 27.233 109.319C24.3439 101.463 24.8783 93.6498 28.822 88.5037C29.3414 87.7042 30.0174 87.0176 30.8092 86.4851C31.601 85.9525 32.4925 85.585 33.4301 85.4045C34.0014 85.3356 34.5808 85.3845 35.1325 85.5482C35.6841 85.7118 36.1962 85.9867 36.637 86.3559C36.9808 86.6295 37.2628 86.9726 37.4645 87.3627C37.6661 87.7527 37.7829 88.1808 37.8071 88.619H36.8681C36.8455 88.3134 36.7593 88.0159 36.6151 87.7454C36.4708 87.4748 36.2716 87.2373 36.0303 87.0478C35.6873 86.7636 35.2907 86.5508 34.864 86.4221C34.4372 86.2933 33.989 86.2512 33.5456 86.2983C31.9182 86.6684 30.4958 87.649 29.5731 89.0371C25.8317 93.9525 25.2395 101.405 28.1286 108.958C29.9914 113.507 32.3147 117.854 35.0624 121.932C36.2036 123.762 37.3881 125.651 38.486 127.553C45.2176 139.373 48.9012 152.433 51.7903 164.787L51.9925 165.637C52.8508 170.029 54.2078 174.309 56.0373 178.394C58.3141 182.711 61.5232 186.47 65.4327 189.399C69.3423 192.328 73.8548 194.354 78.6445 195.331C88.3298 197.247 98.3785 195.887 107.203 191.468C110.737 189.897 113.927 187.649 116.593 184.852C119.305 181.576 121.395 177.835 122.761 173.81C125.173 167.497 127.095 160.837 128.828 154.422C131.501 144.851 134.26 134.948 138.94 125.982C140.385 123.359 141.829 120.778 143.36 118.285C146.227 113.809 148.647 109.063 150.583 104.115C152.244 99.4157 152.317 95.466 150.814 92.5831C150.287 91.6217 149.554 90.7876 148.668 90.14C147.782 89.4924 146.764 89.047 145.686 88.8353C144.934 88.6577 144.15 88.6578 143.398 88.8354C142.646 89.0131 141.945 89.3635 141.352 89.8587L140.731 89.1524C141.428 88.5573 142.255 88.1328 143.145 87.9126C144.035 87.6924 144.965 87.6826 145.859 87.8839C147.082 88.1357 148.234 88.6539 149.233 89.4015C150.232 90.149 151.053 91.1075 151.638 92.2083C153.27 95.3796 153.198 99.5022 151.45 104.461C149.493 109.471 147.035 114.272 144.111 118.789C142.667 121.283 141.078 123.849 139.778 126.443C135.155 135.323 132.411 145.183 129.753 154.696C127.947 161.154 126.083 167.828 123.642 174.171C122.246 178.306 120.101 182.151 117.315 185.515C114.561 188.401 111.269 190.723 107.622 192.348C101.202 195.466 94.1633 197.111 87.0229 197.162V197.162Z" fill="#AB8DA8"/>
<path d="M97.6258 29.3168C98.3727 28.1337 98.8007 26.7782 98.8681 25.3815C98.9497 24.7543 98.8923 24.1168 98.7001 23.5141C98.5079 22.9114 98.1856 22.3581 97.7558 21.8932C97.3947 21.5472 96.9469 21.2733 96.6146 20.8985C96.2824 20.5238 96.1235 20.1346 95.849 19.7742C95.5515 19.3876 95.1686 19.0746 94.7302 18.8596C94.2918 18.6446 93.8096 18.5334 93.3211 18.5345C92.3243 18.5345 91.2698 18.9958 90.432 18.5345C89.9119 18.2751 89.5652 17.7561 88.9874 17.4678C88.4436 17.1916 87.8197 17.1151 87.2251 17.2516C86.7056 17.4324 86.157 17.5155 85.6072 17.4967C84.8271 17.3813 84.2926 16.6894 83.5993 16.3002C83.2428 16.1184 82.8508 16.0166 82.4508 16.0019C82.0508 15.9872 81.6523 16.06 81.2835 16.2152C80.9146 16.3704 80.5842 16.6042 80.3155 16.9003C80.0468 17.1963 79.8462 17.5475 79.7279 17.9291C79.6337 18.2931 79.6337 18.675 79.7279 19.039C79.8868 19.9183 80.4935 20.6247 80.5368 21.504C80.5802 22.3833 80.0457 23.1472 80.5368 23.9256C81.028 24.704 81.7502 24.7329 82.0969 25.468C82.5592 26.4626 82.0969 27.76 82.5158 28.8267C82.7325 29.5042 82.8481 30.4699 83.4837 30.9024C84.3649 31.5078 86.2861 31.0033 87.3406 30.9024L91.4287 30.5708C93.2344 30.3979 95.459 30.5708 97.0913 29.6771C97.2884 29.5877 97.4691 29.4659 97.6258 29.3168V29.3168Z" fill="#3B2645"/>
<path d="M83.7583 28.6825C83.6148 28.4859 83.4269 28.326 83.2097 28.2157C82.9926 28.1055 82.7524 28.048 82.5087 28.048C82.2651 28.048 82.0249 28.1055 81.8077 28.2157C81.5906 28.326 81.4026 28.4859 81.2592 28.6825C80.0025 30.124 82.1259 33.0069 83.7583 33.1799C83.8533 31.6822 83.8533 30.1801 83.7583 28.6825V28.6825Z" fill="#FFEDE5"/>
<path d="M104.054 52.8271C103.674 55.2552 103.162 57.6611 102.523 60.0345C102.422 60.4813 102.335 60.9138 102.278 61.3318C102.22 61.7498 102.162 62.0669 102.09 62.6003C102.09 62.7012 102.09 62.8165 102.09 62.9174C102.09 63.2634 101.989 63.6237 101.945 64.0129L100.125 80.9503C88.8143 84.0494 77.0123 80.9503 77.0123 80.9503C77.0123 80.9503 77.0123 80.734 77.0123 80.316C76.8245 78.3989 76.2467 72.3014 75.6689 65.4256C75.6689 65.4256 75.6689 65.3247 75.6689 65.2814C75.6747 65.1758 75.6747 65.0699 75.6689 64.9643C75.4233 62.0813 75.1922 59.0254 75.0044 56.1136C74.6577 51.0541 74.441 46.3837 74.4844 43.4863C74.4844 42.4196 76.9834 42.5349 78.688 42.3043C79.9448 42.1313 81.2304 42.016 82.3427 41.9584C83.455 41.9007 84.2929 41.8719 84.8562 41.8719H85.4918C85.4918 41.8719 85.6363 40.2142 85.6363 40.1998L86.0263 36.1348C86.216 36.1836 86.4092 36.2173 86.6041 36.2357C86.9617 36.3026 87.3239 36.3411 87.6876 36.351C88.1643 36.351 88.6121 36.351 89.031 36.351L89.6521 36.2789H90.0133C90.4178 36.2069 90.8078 36.1204 91.1689 36.0195C91.5301 35.9186 91.6456 35.8753 91.8768 35.8033C92.9321 35.4658 93.934 34.9805 94.8525 34.3618L94.9825 34.2753L95.2281 34.0879L95.4015 33.9582C95.4015 34.16 95.4015 34.2465 95.4015 34.333C95.2859 35.2843 95.1559 36.4952 95.0981 37.6916C95.0981 38.5276 95.0114 39.3493 94.9825 40.0556C94.9536 40.7619 94.7225 41.7854 95.2281 42.1457C95.4085 42.2469 95.6034 42.3198 95.8059 42.362C96.5988 42.4869 97.4014 42.54 98.2039 42.5205C98.4495 42.5205 98.695 42.5205 98.9406 42.5205C99.5564 42.4847 100.174 42.4847 100.79 42.5205C101.22 42.5193 101.646 42.6041 102.043 42.77C102.44 42.9359 102.8 43.1794 103.101 43.4863C103.475 44.0272 103.713 44.6503 103.794 45.3026L103.968 46.4846C104.243 48.5883 104.272 50.7167 104.054 52.8271V52.8271Z" fill="#FFEDE5"/>
<path d="M95.3437 33.8572C95.1483 34.8888 94.7263 35.8644 94.108 36.7138C93.4898 37.5633 92.6906 38.2655 91.7679 38.7699C90.8452 39.2744 89.822 39.5686 88.7718 39.6314C87.7216 39.6941 86.6705 39.524 85.6941 39.133L85.9686 36.1492C87.6044 36.4641 89.2892 36.4223 90.9074 36.0267C92.5256 35.6311 94.0389 34.891 95.3437 33.8572V33.8572Z" fill="#E0855C" fill-opacity="0.1"/>
<path d="M84.0469 24.3581C83.2091 25.223 83.1369 27.1546 83.0791 29.288C82.8624 35.7746 84.8126 37.7927 88.1206 38.1531C91.4286 38.5134 94.9099 37.2305 95.6178 31.234C95.9789 28.2213 96.3545 25.4681 95.2566 24.1563C93.6821 22.2248 86.5894 21.7058 84.0469 24.3581Z" fill="#FFEDE5"/>
<path d="M95.1268 30.3547C95.1268 30.3547 96.138 27.6735 97.7415 29.1006C99.3449 30.5277 97.1348 34.5782 94.679 34.2755C94.7079 34.2755 94.3757 31.2772 95.1268 30.3547Z" fill="#FFEDE5"/>
<path d="M97.0339 30.3258C96.6547 30.444 96.315 30.6633 96.0516 30.96C95.7532 31.2087 95.5118 31.5184 95.3438 31.8682C95.3437 31.9691 95.4449 32.0412 95.5171 31.9691C95.7207 31.7679 95.9136 31.5562 96.0949 31.3348C96.2267 31.4798 96.3897 31.5932 96.5716 31.6664C96.7161 31.6664 96.8316 31.5366 96.7739 31.4213C96.6738 31.2687 96.5405 31.1406 96.3838 31.0465C96.6535 30.8742 96.9094 30.6815 97.1494 30.4699C97.1539 30.4526 97.1543 30.4344 97.1506 30.4169C97.1468 30.3994 97.139 30.383 97.1278 30.369C97.1166 30.355 97.1023 30.3438 97.086 30.3363C97.0697 30.3288 97.0518 30.3252 97.0339 30.3258Z" fill="#E0855C" fill-opacity="0.1"/>
<path d="M85.9251 29.1437C85.9251 29.1437 85.3617 29.3455 85.4484 28.3509C85.5351 27.3563 85.9251 27.5869 85.9251 27.5869C85.9251 27.5869 86.3151 27.5869 86.2573 28.3653C86.1996 29.1437 85.9251 29.1437 85.9251 29.1437Z" fill="#3B2645"/>
<path d="M91.6023 29.1437C91.6023 29.1437 91.0533 29.3455 91.14 28.3509C91.2267 27.3563 91.6023 27.5869 91.6023 27.5869C91.6023 27.5869 91.9923 27.5869 91.9345 28.3653C91.8767 29.1437 91.6023 29.1437 91.6023 29.1437Z" fill="#3B2645"/>
<path d="M86.5322 26.1311C86.3052 26.0029 86.0435 25.9492 85.7843 25.9777C85.525 26.0061 85.2813 26.1153 85.0876 26.2897C85.0778 26.3094 85.0732 26.3313 85.0742 26.3533C85.0752 26.3752 85.0818 26.3966 85.0934 26.4154C85.1049 26.4341 85.1211 26.4496 85.1403 26.4604C85.1595 26.4712 85.1812 26.4769 85.2032 26.4771C85.4054 26.4771 85.5788 26.3618 85.781 26.3474C85.9929 26.3373 86.2045 26.3717 86.4022 26.4483C86.59 26.5059 86.72 26.2176 86.5322 26.1311Z" fill="#3B2645"/>
<path d="M92.4546 26.6212C92.2235 26.0446 91.2268 26.0013 90.7934 26.3473C90.7724 26.3635 90.7554 26.3842 90.7437 26.4079C90.732 26.4317 90.726 26.4578 90.726 26.4842C90.726 26.5107 90.732 26.5368 90.7437 26.5605C90.7554 26.5843 90.7724 26.605 90.7934 26.6212C91.053 26.6428 91.3139 26.6428 91.5734 26.6212C91.7835 26.6549 91.9877 26.718 92.1802 26.8086C92.2051 26.8449 92.2434 26.8698 92.2867 26.878C92.3301 26.8861 92.3749 26.8767 92.4113 26.8518C92.4477 26.827 92.4727 26.7887 92.4808 26.7454C92.4889 26.7022 92.4795 26.6575 92.4546 26.6212V26.6212Z" fill="#3B2645"/>
<path d="M87.0662 33.7851C88.2848 33.9445 89.5232 33.7335 90.6198 33.1797C90.4558 33.5644 90.213 33.9105 89.907 34.196C89.601 34.4815 89.2386 34.7 88.843 34.8374C87.5862 35.1834 87.0662 33.7851 87.0662 33.7851Z" fill="white"/>
<path d="M79.7715 43.472C83.0939 45.7928 83.3973 50.3046 81.7794 53.9083C80.6815 56.3155 78.6447 58.0021 77.4457 60.2796C76.1963 62.4885 74.7456 64.5779 73.1121 66.5212C69.5296 71.0618 66.1204 75.17 64.8059 76.7268C60.2845 82.1179 50.7793 89.2388 47.3557 91.7182C46.5757 92.2948 46.1134 92.6119 46.1134 92.6119C46.1134 92.6119 42.8343 90.8965 43.701 87.7253C43.701 87.7253 56.702 73.9448 58.6232 71.1339C60.7464 67.4804 62.6752 63.7177 64.4014 59.8616C66.6164 55.5852 68.9229 51.3665 71.3208 47.2054C72.4187 45.2883 73.8199 42.881 76.2323 42.4485C77.2058 42.3394 78.1887 42.5467 79.0347 43.0396C79.2903 43.166 79.5365 43.3105 79.7715 43.472Z" fill="#FFEDE5"/>
<path d="M43.7011 87.7399C44.0569 87.7126 44.4143 87.7126 44.7701 87.7399C44.7701 87.7399 47.8903 89.4696 47.3558 91.7183C47.3558 91.7183 47.0236 92.0211 46.5036 92.4823C45.9835 92.9436 45.4201 93.4914 44.7412 94.1833C44.0623 94.8752 42.5166 97.0662 41.8521 96.8788C41.6972 96.8218 41.5619 96.7217 41.4621 96.5905L40.1186 95.1491C39.3675 94.313 38.1107 92.9004 39.0641 91.7904C38.3707 92.2084 36.7528 93.2319 35.9583 92.7418L35.6261 92.2084C35.6261 92.2084 38.0096 90.4354 38.9919 89.5561C40.317 88.4475 41.9732 87.8087 43.7011 87.7399Z" fill="#FFEDE5"/>
<path d="M83.715 65.5555C83.7101 65.6323 83.7101 65.7093 83.715 65.7861C83.715 65.7861 83.845 65.7861 83.8161 65.7861L83.715 65.5555Z" fill="#D6BED3"/>
<path d="M89.0742 112.274C87.7452 122.897 86.1851 132.137 86.1851 132.137C86.4018 134.703 86.5029 137.485 86.5029 140.339C86.5029 145.932 86.1273 151.871 85.6506 157.103C85.0439 163.778 84.2061 169.457 83.8449 172.311V172.671C84.3794 191.598 78.9768 194.106 76.4488 189.969C73.9209 185.832 76.4488 173.637 76.4488 173.637C76.4569 173.527 76.4569 173.416 76.4488 173.306C75.3853 167.642 74.6761 161.918 74.3253 156.167C73.4586 142.242 74.9465 132.714 74.7731 130.984C71.754 100.713 75.9721 84.0207 75.9721 84.0207C76.6307 81.5952 77.8196 79.3455 79.4535 77.4332C82.5304 74.1178 86.2284 74.9539 88.5542 79.0044C88.7987 79.4198 89.0205 79.848 89.2186 80.2873C90.1663 82.6139 90.7039 85.0863 90.8076 87.5956C91.0388 93.866 90.1576 103.538 89.0742 112.274Z" fill="#F5A784"/>
<path d="M103.996 155.431C103.66 161.303 102.956 167.147 101.887 172.931L101.757 173.637C101.757 173.637 104.285 185.875 101.757 189.969C99.2294 194.063 93.8845 191.67 94.3612 172.931C94.3612 172.844 94.3612 172.758 94.3612 172.686C93.9568 169.976 93.1478 164.109 92.5122 157.161C92.0211 151.885 91.6455 145.975 91.6455 140.382C91.6455 137.499 91.761 134.732 91.9777 132.151C91.9777 132.151 90.3743 122.912 89.0886 112.302C88.0052 103.553 87.1096 93.8803 87.4852 87.6675C87.5932 85.1574 88.1357 82.6848 89.0886 80.3593C89.2779 79.9065 89.5 79.4681 89.7531 79.0475C92.4255 74.4204 96.8747 74.0168 100.154 79.2349C101.093 80.7475 101.831 82.3756 102.35 84.0783C102.35 84.0783 106.568 100.727 103.549 131.042C103.332 132.742 104.762 141.939 103.996 155.431Z" fill="#F5A784"/>
<path d="M43.3543 97.0947C43.6421 97.4272 43.9996 97.6925 44.4015 97.8718C44.8034 98.0512 45.2399 98.1402 45.68 98.1326C45.8817 98.0858 46.0717 97.9987 46.2386 97.8765C46.4056 97.7543 46.5459 97.5996 46.6513 97.4217C46.7566 97.2439 46.8247 97.0466 46.8514 96.8417C46.8781 96.6368 46.863 96.4287 46.8068 96.2299C46.6388 95.7914 46.3661 95.4005 46.0123 95.0911C43.831 92.9289 41.592 90.7667 39.324 88.763C38.945 88.3367 38.4385 88.0436 37.8795 87.927C37.3596 87.9267 36.8564 88.1106 36.4597 88.4458C36.0629 88.7811 35.7982 89.2459 35.7126 89.7577C35.7126 90.6802 36.5071 91.0262 37.1572 91.5451C39.2085 93.3613 41.2597 95.2641 43.3543 97.0947Z" fill="#3B2645"/>
<path d="M43.0361 94.5436C43.126 94.4511 43.1993 94.3438 43.2528 94.2265C43.2894 94.0775 43.2916 93.9222 43.259 93.7724C43.2265 93.6225 43.1601 93.482 43.065 93.3616C42.5305 92.4823 41.4327 91.0696 40.3493 90.9399C39.9916 90.9217 39.6354 90.9973 39.316 91.1592C38.9967 91.321 38.7254 91.5635 38.5291 91.8624C38.205 92.3278 37.9988 92.8648 37.9284 93.4272C37.8579 93.9896 37.9253 94.5606 38.1247 95.0913C38.4417 96.046 39.0931 96.8546 39.9592 97.3689C40.3915 97.5517 40.8778 97.5607 41.3165 97.3942C41.7553 97.2276 42.1126 96.8984 42.3139 96.4752C42.5305 95.9418 42.4583 95.2932 42.805 94.8463C42.8708 94.7373 42.9483 94.6358 43.0361 94.5436V94.5436Z" fill="#FFEDE5"/>
<path d="M98.3195 43.4718C94.9826 45.7926 94.6792 50.3044 96.3116 53.9081C97.395 56.3154 99.4318 58.0019 100.645 60.2794C101.905 62.482 103.355 64.5704 104.979 66.521C108.561 71.0617 111.985 75.1699 113.285 76.7267C117.821 82.1466 127.326 89.2387 130.75 91.718L132.006 92.6117C132.006 92.6117 135.271 90.8964 134.404 87.7251C134.404 87.7251 121.403 73.9446 119.482 71.1338C117.353 67.4834 115.424 63.7204 113.704 59.8614C111.479 55.537 109.183 51.3711 106.77 47.2053C105.672 45.2881 104.285 42.8808 101.859 42.4484C100.885 42.3403 99.9026 42.5475 99.0562 43.0394C98.8003 43.1652 98.554 43.3097 98.3195 43.4718Z" fill="#FFEDE5"/>
<path d="M134.39 87.7397C134.029 87.7126 133.667 87.7126 133.306 87.7397C133.306 87.7397 130.186 89.4695 130.721 91.7182C130.721 91.7182 131.067 92.0209 131.573 92.4822C132.079 92.9434 132.671 93.4912 133.335 94.1831C134 94.875 135.574 97.0661 136.224 96.8787C136.377 96.8177 136.511 96.7184 136.614 96.5904L137.943 95.1489C138.709 94.3128 139.951 92.9002 139.012 91.7902C139.691 92.2083 141.309 93.2317 142.118 92.7416L142.393 92.2083C142.393 92.2083 140.009 90.4353 139.012 89.556C137.713 88.4612 136.089 87.8231 134.39 87.7397V87.7397Z" fill="#FFEDE5"/>
<path d="M134.722 97.0948C134.434 97.4273 134.077 97.6925 133.675 97.8719C133.273 98.0512 132.836 98.1403 132.396 98.1327C132.192 98.0891 131.999 98.0044 131.829 97.8836C131.659 97.7628 131.515 97.6086 131.407 97.4304C131.298 97.2521 131.228 97.0537 131.199 96.8473C131.171 96.6408 131.185 96.4307 131.241 96.2299C131.421 95.8108 131.698 95.4403 132.05 95.1488C134.236 92.9866 136.47 90.8772 138.752 88.8207C139.129 88.392 139.637 88.0983 140.197 87.9847C140.715 87.985 141.216 88.1693 141.611 88.5048C142.005 88.8402 142.267 89.3048 142.349 89.8154C142.349 90.7379 141.569 91.0839 140.905 91.6028C138.868 93.3614 136.817 95.2641 134.722 97.0948Z" fill="#3B2645"/>
<path d="M135.054 94.5436C134.956 94.4553 134.877 94.3473 134.823 94.2265C134.793 94.0763 134.795 93.9213 134.83 93.772C134.865 93.6228 134.931 93.4828 135.025 93.3616C135.545 92.4823 136.643 91.0696 137.727 90.9399C138.084 90.9217 138.441 90.9973 138.76 91.1592C139.079 91.321 139.351 91.5635 139.547 91.8624C139.867 92.33 140.068 92.869 140.131 93.432C140.194 93.995 140.117 94.5648 139.908 95.0913C139.6 96.0512 138.947 96.8629 138.073 97.3689C137.641 97.5517 137.155 97.5607 136.716 97.3942C136.277 97.2276 135.92 96.8984 135.719 96.4752C135.516 95.9418 135.589 95.2932 135.228 94.8463L135.054 94.5436Z" fill="#FFEDE5"/>
<path d="M104.213 146.192V147.633C104.213 148.599 104.213 149.594 104.213 150.617V151.785C104.213 152.967 104.126 154.192 104.069 155.446C100.328 156.476 96.4773 157.052 92.5989 157.161C92.44 155.547 92.1221 151.251 92.1077 150.776C92.1077 149.795 91.891 147.028 91.8766 146.653C91.7899 144.548 91.7321 142.444 91.7321 140.383C91.7321 137.701 91.8332 135.078 92.0355 132.642C92.0355 132.469 92.0355 132.31 92.0355 132.152C92.0355 131.993 90.432 122.926 89.1464 112.303C89.0019 113.427 88.8575 114.551 88.713 115.632C87.4996 124.771 86.2139 132.152 86.2139 132.152C86.4306 134.718 86.5317 137.5 86.5317 140.354C86.5317 142.53 86.5317 144.678 86.3728 146.956C86.3728 147.33 86.0839 152.145 86.0406 152.606C85.9395 154.149 85.8095 155.662 85.6795 157.118C83.6571 157.032 81.6636 156.902 79.6846 156.729C78.1245 156.599 76.1599 156.513 74.2531 156.239C74.1664 154.941 74.1086 153.702 74.0653 152.491C74.0653 152.188 74.0653 151.885 74.0653 151.583C74.0653 150.257 74.0653 149.003 74.0653 147.792V146.84C74.0653 138.105 74.9176 132.354 74.7876 130.984C71.7684 100.713 75.9865 84.0208 75.9865 84.0208C76.6451 81.5953 77.834 79.3456 79.4679 77.4333C80.7062 77.6246 81.9213 77.9435 83.0937 78.3847C84.8798 78.8503 86.7233 79.0591 88.5686 79.0045H89.8975C91.501 79.0045 93.1044 78.8171 94.6934 78.7739H95.7624C97.2857 78.7513 98.8069 78.8963 100.298 79.2063C101.19 80.7353 101.879 82.373 102.35 84.0785C103.517 89.5193 104.203 95.0517 104.401 100.612C104.89 110.762 104.605 120.935 103.549 131.042C103.375 132.325 104.141 137.817 104.213 146.192Z" fill="#3B2645"/>
<path d="M46.3158 41.7566C46.3158 41.6701 46.1425 41.6701 46.128 41.7566C45.4058 46.672 45.8247 51.8469 45.8247 56.8777C45.8247 62.1967 45.6513 67.559 45.9691 72.8636C45.9828 72.9202 46.0152 72.9706 46.061 73.0067C46.1069 73.0427 46.1636 73.0623 46.2219 73.0623C46.2803 73.0623 46.337 73.0427 46.3828 73.0067C46.4287 72.9706 46.4611 72.9202 46.4747 72.8636C46.7781 67.559 46.6047 62.1967 46.6047 56.8777C46.6047 51.9622 47.0237 46.7153 46.3158 41.7566Z" fill="#F7F8F8"/>
<path d="M52.6282 43.4288C52.6128 43.358 52.5736 43.2946 52.5171 43.2491C52.4606 43.2037 52.3902 43.1789 52.3176 43.1789C52.245 43.1789 52.1746 43.2037 52.1181 43.2491C52.0616 43.2946 52.0224 43.358 52.007 43.4288C52.007 48.1568 51.7037 52.9713 52.007 57.685C52.007 57.7652 52.039 57.8422 52.0959 57.899C52.1528 57.9558 52.2299 57.9877 52.3104 57.9877C52.3908 57.9877 52.468 57.9558 52.5249 57.899C52.5818 57.8422 52.6137 57.7652 52.6137 57.685C52.946 52.9713 52.6571 48.1568 52.6282 43.4288Z" fill="#F7F8F8"/>
<path d="M117.214 92.929C117.203 92.8863 117.177 92.8487 117.142 92.8219C117.107 92.7951 117.064 92.7806 117.019 92.7806C116.975 92.7806 116.932 92.7951 116.897 92.8219C116.861 92.8487 116.836 92.8863 116.824 92.929C116.417 99.1188 116.335 105.326 116.579 111.524C116.579 117.722 116.579 123.906 116.81 130.105C116.822 130.151 116.849 130.191 116.887 130.221C116.925 130.25 116.971 130.265 117.019 130.265C117.067 130.265 117.114 130.25 117.151 130.221C117.189 130.191 117.217 130.151 117.229 130.105C117.431 123.906 117.431 117.722 117.46 111.524C117.696 105.326 117.614 99.1191 117.214 92.929Z" fill="#F7F8F8"/>
<path d="M128.352 56.676C128.306 52.5514 128.036 48.4323 127.543 44.337C127.543 44.092 127.153 44.164 127.138 44.337C127.027 48.7661 127.157 53.198 127.528 57.613C127.716 61.7212 127.673 65.9303 128.222 69.9953C128.222 70.37 128.857 70.2547 128.872 69.9088C129.074 65.5123 128.612 61.0293 128.352 56.676Z" fill="#F7F8F8"/>
<path d="M131.241 58.9681C131.231 58.9358 131.21 58.9076 131.183 58.8876C131.156 58.8676 131.123 58.8568 131.089 58.8568C131.055 58.8568 131.022 58.8676 130.995 58.8876C130.968 58.9076 130.947 58.9358 130.937 58.9681C130.555 64.8904 130.526 70.8301 130.851 76.7559C130.842 76.792 130.841 76.8296 130.849 76.866C130.857 76.9024 130.873 76.9365 130.896 76.9659C130.919 76.9952 130.948 77.0188 130.981 77.0351C131.015 77.0514 131.052 77.0599 131.089 77.0599C131.126 77.0599 131.163 77.0514 131.197 77.0351C131.23 77.0188 131.259 76.9952 131.282 76.9659C131.305 76.9365 131.321 76.9024 131.329 76.866C131.337 76.8296 131.336 76.792 131.327 76.7559C131.652 70.8301 131.623 64.8904 131.241 58.9681V58.9681Z" fill="#F7F8F8"/>
<path d="M88.641 115.618C88.663 114.495 88.8083 113.379 89.0744 112.288C88.9299 113.412 88.7855 114.537 88.641 115.618Z" fill="#291B30"/>
<path d="M104.358 100.612C102.407 88.9216 86.3007 88.3739 86.3007 88.3739C85.304 83.5593 91.8044 82.1179 91.8044 82.1179L95.6036 78.8457C97.1269 78.8231 98.648 78.9681 100.139 79.2782C101.08 80.7764 101.823 82.3899 102.35 84.0783C103.493 89.5219 104.165 95.0535 104.358 100.612V100.612Z" fill="#291B30"/>
<path d="M102.581 85.3325C89.5801 91.4299 75.4524 85.837 75.4524 85.837C76.478 82.954 75.7124 68.251 75.6402 65.4545C75.6402 65.4545 75.6402 65.3536 75.6402 65.3104C75.646 65.2047 75.646 65.0989 75.6402 64.9933C78.3704 58.6796 78.6737 46.5135 78.6882 42.3333C79.916 42.1459 81.2017 42.045 82.314 41.9873C82.7474 46.6577 84.293 58.6363 88.5978 58.1174C92.9026 57.5985 94.9538 46.9316 95.705 42.2612C96.497 42.3938 97.3003 42.4469 98.1029 42.4197C98.3485 42.4197 98.5941 42.4197 98.8397 42.4197C98.4641 48.8055 102.018 62.2256 102.119 62.6004C102.119 62.7013 102.119 62.8166 102.119 62.9175C102.119 63.2635 102.018 63.6238 101.974 64.013C101.974 64.013 101.974 64.1716 101.974 64.2581C101.064 72.388 102.581 85.3325 102.581 85.3325Z" fill="#AB8DA8"/>
<ellipse opacity="0.3" cx="240" cy="107.5" rx="54" ry="53.5" fill="white"/>
<path d="M238.425 181.348C236.126 181.353 233.834 181.11 231.588 180.625C227.661 179.82 223.963 178.156 220.758 175.753C217.554 173.349 214.923 170.267 213.056 166.727C211.575 163.416 210.475 159.949 209.776 156.39L209.615 155.713C207.313 145.927 204.412 135.579 199.06 126.229C198.197 124.725 197.253 123.22 196.344 121.773C194.144 118.496 192.281 115.006 190.784 111.356C188.482 105.096 188.908 98.8707 192.051 94.7704C192.465 94.1333 193.003 93.5862 193.634 93.1619C194.265 92.7376 194.975 92.4448 195.722 92.301C196.178 92.2461 196.639 92.285 197.079 92.4154C197.518 92.5458 197.926 92.7649 198.278 93.059C198.552 93.2771 198.776 93.5504 198.937 93.8612C199.098 94.172 199.191 94.5131 199.21 94.8623H198.462C198.444 94.6188 198.375 94.3817 198.26 94.1661C198.145 93.9506 197.986 93.7613 197.794 93.6103C197.521 93.3839 197.205 93.2143 196.865 93.1118C196.525 93.0092 196.168 92.9756 195.814 93.0131C194.518 93.308 193.384 94.0894 192.649 95.1953C189.668 99.1119 189.196 105.05 191.498 111.068C192.982 114.693 194.834 118.156 197.023 121.405C197.932 122.864 198.876 124.369 199.751 125.885C205.115 135.303 208.05 145.709 210.352 155.552L210.513 156.23C211.197 159.729 212.278 163.139 213.736 166.394C215.55 169.834 218.107 172.829 221.222 175.163C224.337 177.497 227.932 179.111 231.749 179.89C239.466 181.416 247.473 180.333 254.504 176.812C257.32 175.56 259.861 173.769 261.986 171.54C264.147 168.93 265.812 165.948 266.9 162.742C268.823 157.711 270.353 152.405 271.735 147.294C273.864 139.667 276.062 131.777 279.792 124.633C280.943 122.542 282.094 120.487 283.314 118.5C285.598 114.933 287.526 111.152 289.069 107.209C290.392 103.465 290.45 100.318 289.253 98.0208C288.833 97.2547 288.249 96.5902 287.543 96.0742C286.837 95.5581 286.026 95.2032 285.167 95.0345C284.567 94.8931 283.943 94.8931 283.344 95.0347C282.744 95.1762 282.186 95.4554 281.714 95.85L281.219 95.2872C281.774 94.8131 282.433 94.4749 283.142 94.2994C283.851 94.1239 284.592 94.1161 285.305 94.2765C286.279 94.4772 287.197 94.8901 287.993 95.4857C288.789 96.0813 289.443 96.845 289.909 97.7222C291.21 100.249 291.152 103.534 289.759 107.485C288.201 111.477 286.242 115.302 283.912 118.902C282.761 120.889 281.495 122.933 280.459 125C276.776 132.075 274.589 139.932 272.471 147.512C271.033 152.658 269.548 157.975 267.603 163.029C266.49 166.324 264.781 169.388 262.561 172.068C260.367 174.368 257.743 176.217 254.838 177.512C249.722 179.997 244.114 181.308 238.425 181.348V181.348Z" fill="#AB8DA8"/>
<path d="M246.873 47.6107C247.468 46.668 247.809 45.588 247.863 44.4751C247.928 43.9753 247.882 43.4674 247.729 42.9872C247.576 42.5069 247.319 42.0661 246.977 41.6956C246.689 41.42 246.332 41.2017 246.067 40.9031C245.803 40.6045 245.676 40.2944 245.457 40.0072C245.22 39.6992 244.915 39.4498 244.566 39.2785C244.216 39.1072 243.832 39.0186 243.443 39.0195C242.649 39.0195 241.809 39.387 241.141 39.0195C240.727 38.8127 240.45 38.3993 239.99 38.1696C239.557 37.9495 239.06 37.8885 238.586 37.9973C238.172 38.1413 237.735 38.2075 237.297 38.1925C236.675 38.1006 236.249 37.5493 235.697 37.2392C235.413 37.0943 235.1 37.0132 234.782 37.0015C234.463 36.9898 234.145 37.0478 233.852 37.1714C233.558 37.2951 233.294 37.4814 233.08 37.7173C232.866 37.9532 232.706 38.233 232.612 38.5371C232.537 38.8271 232.537 39.1314 232.612 39.4215C232.739 40.1221 233.222 40.6849 233.257 41.3855C233.291 42.0861 232.865 42.6949 233.257 43.3151C233.648 43.9353 234.223 43.9583 234.5 44.544C234.868 45.3365 234.5 46.3702 234.834 47.2202C235.006 47.76 235.098 48.5295 235.605 48.8741C236.307 49.3565 237.838 48.9545 238.678 48.8741L241.935 48.6099C243.374 48.4721 245.147 48.6099 246.447 47.8978C246.604 47.8266 246.748 47.7295 246.873 47.6107V47.6107Z" fill="#3B2645"/>
<path d="M235.823 47.1053C235.709 46.9487 235.559 46.8212 235.386 46.7334C235.213 46.6455 235.022 46.5997 234.828 46.5997C234.634 46.5997 234.442 46.6455 234.269 46.7334C234.096 46.8212 233.946 46.9487 233.832 47.1053C232.831 48.2538 234.523 50.551 235.823 50.6888C235.899 49.4955 235.899 48.2986 235.823 47.1053V47.1053Z" fill="#FFEDE5"/>
<path d="M251.995 66.3435C251.692 68.2781 251.284 70.1952 250.775 72.0862C250.694 72.4423 250.625 72.7869 250.579 73.1199C250.533 73.453 250.487 73.7057 250.43 74.1307C250.43 74.2111 250.43 74.303 250.43 74.3834C250.43 74.659 250.349 74.9461 250.315 75.2563L248.864 88.7518C239.852 91.2212 230.448 88.7518 230.448 88.7518C230.448 88.7518 230.448 88.5795 230.448 88.2464C230.299 86.7188 229.838 81.8604 229.378 76.3818C229.378 76.3818 229.378 76.3014 229.378 76.267C229.382 76.1828 229.382 76.0985 229.378 76.0143C229.182 73.7172 228.998 71.2823 228.848 68.9622C228.572 64.9307 228.399 61.2094 228.434 58.9008C228.434 58.0509 230.425 58.1428 231.783 57.959C232.785 57.8212 233.809 57.7293 234.695 57.6834C235.582 57.6374 236.249 57.6145 236.698 57.6145H237.205C237.205 57.6145 237.32 56.2936 237.32 56.2821L237.63 53.0432C237.782 53.0821 237.936 53.109 238.091 53.1236C238.376 53.1769 238.664 53.2076 238.954 53.2155C239.334 53.2155 239.691 53.2155 240.025 53.2155L240.519 53.1581H240.807C241.13 53.1006 241.44 53.0317 241.728 52.9513C242.016 52.8709 242.108 52.8365 242.292 52.779C243.133 52.5102 243.931 52.1234 244.663 51.6305L244.767 51.5616L244.962 51.4123L245.1 51.3089C245.1 51.4697 245.1 51.5386 245.1 51.6075C245.008 52.3656 244.905 53.3303 244.859 54.2836C244.859 54.9498 244.79 55.6045 244.767 56.1673C244.744 56.7301 244.56 57.5455 244.962 57.8327C245.106 57.9133 245.261 57.9714 245.423 58.005C246.055 58.1045 246.694 58.1468 247.333 58.1313C247.529 58.1313 247.725 58.1313 247.92 58.1313C248.411 58.1028 248.903 58.1028 249.394 58.1313C249.737 58.1303 250.076 58.1979 250.393 58.3301C250.709 58.4622 250.995 58.6563 251.235 58.9008C251.534 59.3318 251.723 59.8282 251.788 60.348L251.926 61.2898C252.145 62.966 252.168 64.6619 251.995 66.3435V66.3435Z" fill="#FFEDE5"/>
<path d="M245.055 51.2285C244.899 52.0505 244.563 52.8278 244.07 53.5047C243.577 54.1815 242.941 54.741 242.205 55.1429C241.47 55.5449 240.655 55.7793 239.818 55.8293C238.981 55.8793 238.144 55.7437 237.366 55.4323L237.585 53.0547C238.888 53.3057 240.23 53.2724 241.52 52.9572C242.809 52.6419 244.015 52.0523 245.055 51.2285V51.2285Z" fill="#E0855C" fill-opacity="0.1"/>
<path d="M236.053 43.6597C235.386 44.3488 235.328 45.8879 235.282 47.5878C235.11 52.7563 236.664 54.3642 239.299 54.6514C241.935 54.9385 244.709 53.9163 245.273 49.1383C245.561 46.7378 245.86 44.5441 244.985 43.4989C243.731 41.9599 238.079 41.5464 236.053 43.6597Z" fill="#FFEDE5"/>
<path d="M244.882 48.4376C244.882 48.4376 245.687 46.3013 246.965 47.4384C248.243 48.5755 246.482 51.8029 244.525 51.5617C244.548 51.5617 244.283 49.1727 244.882 48.4376Z" fill="#FFEDE5"/>
<path d="M246.401 48.4146C246.099 48.5088 245.829 48.6836 245.619 48.92C245.381 49.1181 245.189 49.3649 245.055 49.6436C245.055 49.724 245.135 49.7814 245.193 49.724C245.355 49.5637 245.509 49.395 245.653 49.2186C245.758 49.3341 245.888 49.4245 246.033 49.4828C246.148 49.4828 246.24 49.3794 246.194 49.2875C246.114 49.1659 246.008 49.0638 245.883 48.9889C246.098 48.8516 246.302 48.698 246.493 48.5295C246.497 48.5157 246.497 48.5012 246.494 48.4872C246.491 48.4733 246.485 48.4602 246.476 48.4491C246.467 48.4379 246.456 48.429 246.443 48.423C246.43 48.417 246.416 48.4142 246.401 48.4146Z" fill="#E0855C" fill-opacity="0.1"/>
<path d="M237.55 47.4728C237.55 47.4728 237.101 47.6336 237.17 46.8411C237.239 46.0486 237.55 46.2323 237.55 46.2323C237.55 46.2323 237.861 46.2323 237.815 46.8525C237.769 47.4728 237.55 47.4728 237.55 47.4728Z" fill="#3B2645"/>
<path d="M242.074 47.4728C242.074 47.4728 241.636 47.6336 241.705 46.8411C241.774 46.0486 242.074 46.2323 242.074 46.2323C242.074 46.2323 242.384 46.2323 242.338 46.8525C242.292 47.4728 242.074 47.4728 242.074 47.4728Z" fill="#3B2645"/>
<path d="M238.034 45.0724C237.853 44.9702 237.644 44.9274 237.438 44.9501C237.231 44.9728 237.037 45.0598 236.883 45.1987C236.875 45.2144 236.871 45.2319 236.872 45.2494C236.873 45.2669 236.878 45.2839 236.887 45.2989C236.897 45.3138 236.909 45.3261 236.925 45.3348C236.94 45.3434 236.957 45.3479 236.975 45.3481C237.136 45.3481 237.274 45.2562 237.435 45.2447C237.604 45.2367 237.773 45.2641 237.93 45.3251C238.08 45.371 238.183 45.1413 238.034 45.0724Z" fill="#3B2645"/>
<path d="M242.753 45.4628C242.568 45.0034 241.774 44.969 241.429 45.2446C241.412 45.2575 241.399 45.274 241.389 45.2929C241.38 45.3118 241.375 45.3326 241.375 45.3537C241.375 45.3748 241.38 45.3956 241.389 45.4145C241.399 45.4334 241.412 45.45 241.429 45.4628C241.636 45.48 241.844 45.48 242.05 45.4628C242.218 45.4897 242.38 45.54 242.534 45.6121C242.554 45.6411 242.584 45.661 242.619 45.6674C242.653 45.6739 242.689 45.6664 242.718 45.6466C242.747 45.6268 242.767 45.5963 242.773 45.5619C242.78 45.5274 242.772 45.4918 242.753 45.4628V45.4628Z" fill="#3B2645"/>
<path d="M238.459 51.171C239.43 51.298 240.417 51.1299 241.291 50.6886C241.16 50.9951 240.966 51.2709 240.723 51.4984C240.479 51.7259 240.19 51.9 239.875 52.0095C238.873 52.2851 238.459 51.171 238.459 51.171Z" fill="white"/>
<path d="M232.647 58.8895C235.294 60.7386 235.536 64.3336 234.247 67.205C233.372 69.1231 231.749 70.4669 230.794 72.2816C229.798 74.0417 228.642 75.7064 227.341 77.2549C224.486 80.8728 221.77 84.1462 220.722 85.3866C217.12 89.6822 209.546 95.3561 206.818 97.3316C206.197 97.791 205.828 98.0437 205.828 98.0437C205.828 98.0437 203.216 96.6769 203.906 94.1501C203.906 94.1501 214.265 83.1699 215.796 80.9302C217.488 78.0191 219.025 75.0211 220.4 71.9485C222.165 68.5412 224.003 65.1797 225.913 61.8642C226.788 60.3366 227.905 58.4186 229.827 58.074C230.602 57.987 231.386 58.1522 232.06 58.5449C232.263 58.6456 232.46 58.7608 232.647 58.8895Z" fill="#FFEDE5"/>
<path d="M203.906 94.1617C204.19 94.1399 204.474 94.1399 204.758 94.1617C204.758 94.1617 207.244 95.5399 206.818 97.3317C206.818 97.3317 206.553 97.5729 206.139 97.9404C205.725 98.308 205.276 98.7444 204.735 99.2957C204.194 99.847 202.962 101.593 202.433 101.444C202.309 101.398 202.202 101.318 202.122 101.214L201.052 100.065C200.453 99.3991 199.452 98.2735 200.211 97.3891C199.659 97.7222 198.37 98.5377 197.737 98.1472L197.472 97.7222C197.472 97.7222 199.371 96.3095 200.154 95.6089C201.21 94.7255 202.529 94.2165 203.906 94.1617Z" fill="#FFEDE5"/>
<path d="M235.789 76.4854C235.785 76.5466 235.785 76.608 235.789 76.6692C235.789 76.6692 235.892 76.6692 235.869 76.6692L235.789 76.4854Z" fill="#D6BED3"/>
<path d="M240.059 113.71C239 122.175 237.757 129.537 237.757 129.537C237.93 131.582 238.01 133.798 238.01 136.072C238.01 140.529 237.711 145.261 237.331 149.43C236.848 154.748 236.18 159.273 235.892 161.547V161.834C236.318 176.915 232.014 178.913 229.999 175.617C227.985 172.321 229.999 162.604 229.999 162.604C230.006 162.516 230.006 162.428 229.999 162.34C229.152 157.827 228.587 153.266 228.307 148.683C227.617 137.588 228.802 129.996 228.664 128.618C226.258 104.499 229.619 91.1983 229.619 91.1983C230.144 89.2657 231.092 87.4731 232.393 85.9494C234.845 83.3077 237.792 83.9739 239.645 87.2013C239.84 87.5323 240.016 87.8735 240.174 88.2236C240.929 90.0773 241.358 92.0474 241.44 94.0467C241.624 99.0429 240.922 106.75 240.059 113.71Z" fill="#F5A784"/>
<path d="M251.949 148.098C251.681 152.776 251.12 157.433 250.268 162.041L250.165 162.604C250.165 162.604 252.179 172.355 250.165 175.617C248.151 178.879 243.892 176.972 244.272 162.041C244.272 161.972 244.272 161.903 244.272 161.846C243.949 159.687 243.305 155.012 242.798 149.476C242.407 145.272 242.108 140.563 242.108 136.107C242.108 133.81 242.2 131.604 242.373 129.548C242.373 129.548 241.095 122.186 240.071 113.733C239.207 106.761 238.494 99.0543 238.793 94.104C238.879 92.104 239.311 90.1339 240.071 88.2809C240.221 87.9201 240.398 87.5708 240.6 87.2357C242.729 83.5488 246.274 83.2272 248.887 87.385C249.636 88.5902 250.224 89.8875 250.637 91.2441C250.637 91.2441 253.998 104.51 251.592 128.664C251.419 130.019 252.559 137.347 251.949 148.098Z" fill="#F5A784"/>
<path d="M203.63 101.616C203.859 101.881 204.144 102.092 204.464 102.235C204.785 102.378 205.132 102.449 205.483 102.443C205.644 102.405 205.795 102.336 205.928 102.238C206.061 102.141 206.173 102.018 206.257 101.876C206.341 101.734 206.395 101.577 206.416 101.414C206.438 101.251 206.426 101.085 206.381 100.926C206.247 100.577 206.03 100.266 205.748 100.019C204.01 98.2963 202.226 96.5735 200.419 94.977C200.117 94.6373 199.713 94.4037 199.268 94.3108C198.853 94.3106 198.453 94.4571 198.136 94.7242C197.82 94.9913 197.609 95.3617 197.541 95.7695C197.541 96.5046 198.174 96.7802 198.692 97.1937C200.327 98.6409 201.961 100.157 203.63 101.616Z" fill="#3B2645"/>
<path d="M203.376 99.5829C203.448 99.5091 203.506 99.4237 203.549 99.3302C203.578 99.2115 203.58 99.0878 203.554 98.9684C203.528 98.849 203.475 98.737 203.399 98.641C202.973 97.9404 202.099 96.8148 201.235 96.7115C200.95 96.697 200.667 96.7572 200.412 96.8862C200.158 97.0152 199.942 97.2083 199.785 97.4465C199.527 97.8174 199.363 98.2452 199.307 98.6933C199.25 99.1414 199.304 99.5965 199.463 100.019C199.716 100.78 200.235 101.424 200.925 101.834C201.269 101.98 201.657 101.987 202.006 101.854C202.356 101.721 202.641 101.459 202.801 101.122C202.974 100.697 202.916 100.18 203.192 99.8241C203.245 99.7372 203.306 99.6563 203.376 99.5829V99.5829Z" fill="#FFEDE5"/>
<path d="M247.426 58.8893C244.767 60.7385 244.525 64.3335 245.826 67.2049C246.689 69.1229 248.312 70.4667 249.279 72.2815C250.282 74.0364 251.438 75.7005 252.732 77.2547C255.586 80.8727 258.314 84.146 259.35 85.3865C262.964 89.705 270.538 95.3559 273.266 97.3315L274.267 98.0436C274.267 98.0436 276.868 96.6768 276.178 94.15C276.178 94.15 265.819 83.1698 264.288 80.9301C262.591 78.0215 261.055 75.0232 259.684 71.9484C257.911 68.5027 256.081 65.1834 254.159 61.8641C253.284 60.3365 252.179 58.4184 250.246 58.0738C249.47 57.9877 248.687 58.1528 248.013 58.5447C247.809 58.645 247.612 58.7602 247.426 58.8893Z" fill="#FFEDE5"/>
<path d="M276.166 94.1615C275.879 94.14 275.59 94.14 275.303 94.1615C275.303 94.1615 272.817 95.5398 273.243 97.3316C273.243 97.3316 273.519 97.5728 273.922 97.9403C274.325 98.3078 274.797 98.7443 275.326 99.2956C275.856 99.8469 277.11 101.593 277.628 101.443C277.75 101.395 277.857 101.316 277.939 101.214L278.998 100.065C279.608 99.399 280.598 98.2734 279.85 97.389C280.391 97.7221 281.68 98.5375 282.324 98.147L282.543 97.7221C282.543 97.7221 280.644 96.3093 279.85 95.6087C278.814 94.7365 277.52 94.228 276.166 94.1615V94.1615Z" fill="#FFEDE5"/>
<path d="M276.431 101.616C276.202 101.881 275.917 102.092 275.597 102.235C275.276 102.378 274.929 102.449 274.578 102.443C274.415 102.408 274.261 102.34 274.126 102.244C273.99 102.148 273.876 102.025 273.789 101.883C273.703 101.741 273.647 101.583 273.624 101.418C273.601 101.254 273.613 101.087 273.657 100.927C273.801 100.593 274.022 100.297 274.302 100.065C276.043 98.3423 277.824 96.6616 279.642 95.023C279.943 94.6814 280.347 94.4474 280.793 94.3568C281.206 94.357 281.606 94.504 281.92 94.7712C282.234 95.0385 282.443 95.4087 282.508 95.8155C282.508 96.5506 281.887 96.8262 281.357 97.2397C279.734 98.6409 278.1 100.157 276.431 101.616Z" fill="#3B2645"/>
<path d="M276.696 99.5829C276.617 99.5125 276.554 99.4264 276.511 99.3302C276.487 99.2105 276.489 99.087 276.517 98.9681C276.544 98.8492 276.598 98.7376 276.673 98.641C277.087 97.9404 277.962 96.8148 278.825 96.7115C279.11 96.697 279.394 96.7572 279.648 96.8862C279.903 97.0152 280.119 97.2083 280.275 97.4465C280.531 97.8191 280.69 98.2485 280.741 98.6971C280.791 99.1457 280.73 99.5997 280.563 100.019C280.318 100.784 279.797 101.431 279.101 101.834C278.757 101.98 278.369 101.987 278.02 101.854C277.67 101.721 277.385 101.459 277.225 101.122C277.064 100.697 277.121 100.18 276.834 99.8241L276.696 99.5829Z" fill="#FFEDE5"/>
<path d="M252.122 140.736V141.884C252.122 142.654 252.122 143.446 252.122 144.262V145.192C252.122 146.134 252.052 147.11 252.006 148.109C249.026 148.93 245.958 149.389 242.867 149.476C242.741 148.19 242.488 144.767 242.476 144.388C242.476 143.607 242.303 141.402 242.292 141.103C242.223 139.426 242.177 137.749 242.177 136.107C242.177 133.971 242.257 131.88 242.419 129.939C242.419 129.801 242.419 129.675 242.419 129.549C242.419 129.422 241.141 122.198 240.117 113.733C240.001 114.629 239.886 115.525 239.771 116.386C238.804 123.668 237.78 129.549 237.78 129.549C237.953 131.593 238.033 133.81 238.033 136.084C238.033 137.818 238.033 139.53 237.907 141.344C237.907 141.643 237.676 145.479 237.642 145.847C237.561 147.076 237.458 148.282 237.354 149.442C235.743 149.373 234.154 149.269 232.577 149.132C231.334 149.028 229.769 148.959 228.25 148.741C228.181 147.707 228.135 146.72 228.1 145.755C228.1 145.514 228.1 145.272 228.1 145.031C228.1 143.975 228.1 142.975 228.1 142.011V141.253C228.1 134.292 228.779 129.71 228.676 128.618C226.27 104.499 229.631 91.1985 229.631 91.1985C230.156 89.2658 231.103 87.4732 232.405 85.9496C233.391 86.102 234.36 86.3561 235.294 86.7076C236.717 87.0787 238.186 87.245 239.656 87.2015H240.715C241.993 87.2015 243.27 87.0522 244.536 87.0177H245.388C246.602 86.9997 247.814 87.1153 249.002 87.3623C249.713 88.5806 250.262 89.8855 250.637 91.2444C251.567 95.5796 252.113 99.9878 252.271 104.418C252.661 112.506 252.434 120.611 251.592 128.664C251.454 129.687 252.064 134.063 252.122 140.736Z" fill="#3B2645"/>
<path d="M205.99 57.5227C205.99 57.4538 205.851 57.4538 205.84 57.5227C205.264 61.4392 205.598 65.5626 205.598 69.571C205.598 73.8092 205.46 78.0818 205.713 82.3085C205.724 82.3536 205.75 82.3938 205.787 82.4225C205.823 82.4512 205.868 82.4668 205.915 82.4668C205.961 82.4668 206.006 82.4512 206.043 82.4225C206.079 82.3938 206.105 82.3536 206.116 82.3085C206.358 78.0818 206.22 73.8092 206.22 69.571C206.22 65.6544 206.554 61.4737 205.99 57.5227Z" fill="#F7F8F8"/>
<path d="M211.019 58.855C211.007 58.7986 210.976 58.7481 210.931 58.7118C210.886 58.6756 210.829 58.6559 210.772 58.6559C210.714 58.6559 210.658 58.6756 210.613 58.7118C210.568 58.7481 210.536 58.7986 210.524 58.855C210.524 62.6222 210.282 66.4584 210.524 70.2142C210.524 70.2782 210.55 70.3395 210.595 70.3847C210.64 70.43 210.702 70.4554 210.766 70.4554C210.83 70.4554 210.891 70.43 210.937 70.3847C210.982 70.3395 211.008 70.2782 211.008 70.2142C211.272 66.4584 211.042 62.6222 211.019 58.855Z" fill="#F7F8F8"/>
<path d="M262.481 98.2964C262.472 98.2624 262.451 98.2324 262.423 98.2111C262.395 98.1897 262.361 98.1782 262.326 98.1782C262.29 98.1782 262.256 98.1897 262.228 98.2111C262.2 98.2324 262.18 98.2624 262.17 98.2964C261.846 103.228 261.781 108.174 261.975 113.113C261.975 118.052 261.975 122.979 262.159 127.918C262.168 127.954 262.19 127.987 262.22 128.01C262.25 128.033 262.287 128.046 262.326 128.046C262.364 128.046 262.401 128.033 262.431 128.01C262.461 127.987 262.483 127.954 262.492 127.918C262.654 122.979 262.654 118.052 262.677 113.113C262.865 108.174 262.799 103.229 262.481 98.2964Z" fill="#F7F8F8"/>
<path d="M271.355 69.4103C271.319 66.1238 271.104 62.8418 270.71 59.5787C270.71 59.3834 270.4 59.4408 270.388 59.5787C270.299 63.1077 270.403 66.639 270.699 70.1569C270.849 73.4302 270.814 76.784 271.251 80.0229C271.251 80.3216 271.758 80.2297 271.769 79.954C271.93 76.4509 271.562 72.8789 271.355 69.4103Z" fill="#F7F8F8"/>
<path d="M273.657 71.2366C273.649 71.2109 273.633 71.1885 273.611 71.1725C273.589 71.1565 273.563 71.1479 273.536 71.1479C273.509 71.1479 273.483 71.1565 273.461 71.1725C273.439 71.1885 273.423 71.2109 273.415 71.2366C273.11 75.9555 273.087 80.6882 273.346 85.4098C273.339 85.4386 273.339 85.4686 273.345 85.4976C273.351 85.5266 273.364 85.5538 273.382 85.5771C273.4 85.6005 273.424 85.6193 273.45 85.6323C273.477 85.6453 273.506 85.6521 273.536 85.6521C273.566 85.6521 273.595 85.6453 273.622 85.6323C273.649 85.6193 273.672 85.6005 273.69 85.5771C273.709 85.5538 273.721 85.5266 273.727 85.4976C273.734 85.4686 273.733 85.4386 273.726 85.4098C273.985 80.6882 273.962 75.9555 273.657 71.2366V71.2366Z" fill="#F7F8F8"/>
<path d="M239.714 116.375C239.731 115.48 239.847 114.591 240.059 113.721C239.944 114.617 239.829 115.513 239.714 116.375Z" fill="#291B30"/>
<path d="M252.237 104.418C250.683 95.1033 237.849 94.6668 237.849 94.6668C237.055 90.8307 242.234 89.6821 242.234 89.6821L245.262 87.0749C246.475 87.0569 247.687 87.1724 248.876 87.4195C249.626 88.6133 250.217 89.8988 250.637 91.2442C251.548 95.5816 252.083 99.9891 252.237 104.418V104.418Z" fill="#291B30"/>
<path d="M250.821 92.2435C240.462 97.1019 229.205 92.6455 229.205 92.6455C230.023 90.3484 229.412 78.6331 229.355 76.4049C229.355 76.4049 229.355 76.3245 229.355 76.2901C229.36 76.2059 229.36 76.1216 229.355 76.0374C231.53 71.0067 231.772 61.3129 231.784 57.9821C232.762 57.8328 233.786 57.7524 234.673 57.7065C235.018 61.4278 236.249 70.9723 239.679 70.5588C243.109 70.1453 244.744 61.646 245.342 57.9247C245.973 58.0303 246.614 58.0726 247.253 58.051C247.449 58.051 247.644 58.051 247.84 58.051C247.541 63.1391 250.372 73.8322 250.453 74.1308C250.453 74.2112 250.453 74.3031 250.453 74.3835C250.453 74.6591 250.372 74.9463 250.338 75.2564C250.338 75.2564 250.338 75.3827 250.338 75.4516C249.613 81.9295 250.821 92.2435 250.821 92.2435Z" fill="#AB8DA8"/>
</g>
<rect opacity="0.3" width="315" height="150" rx="22" fill="url(#paint0_linear_485_472)"/>
<defs>
<linearGradient id="paint0_linear_485_472" x1="157.5" y1="0" x2="157.5" y2="150" gradientUnits="userSpaceOnUse">
<stop stop-color="#7C767C"/>
<stop offset="0.685" stop-color="#161516"/>
</linearGradient>
</defs>
</svg>
